<svg xmlns="http://www.w3.org/2000/svg" width="267" height="43.65289306640625" fill="none"><rect id="backgroundrect" width="100%" height="100%" x="0" y="0" fill="none" stroke="none" class="" style=""/>

<g class="currentLayer" style=""><title>Layer 1</title><path d="M24.732143959368777,27.25 H10.54666152444036 L7.84050795223863,34 H0.5950000008598085 L14.213063138391089,2.5 H21.196685260202003 L34.8583960359946,34 H27.438297531570505 L24.732143959368777,27.25 zM22.506114408041547,21.715 L17.661226561035228,9.655 L12.816338714028907,21.715 H22.506114408041547 zM51.428106462259606,9.43 C53.61048837532552,9.43 55.58918130983861,9.955 57.36418526579888,11.005 C59.168287647266695,12.025 60.57956128438265,13.48 61.59800617714675,15.37 C62.61645106991084,17.23 63.125673516292885,19.405 63.125673516292885,21.895 C63.125673516292885,24.385 62.61645106991084,26.575 61.59800617714675,28.465 C60.57956128438265,30.325 59.168287647266695,31.78 57.36418526579888,32.83 C55.58918130983861,33.85 53.61048837532552,34.36 51.428106462259606,34.36 C48.43096863498242,34.36 46.07399616887123,33.385 44.35718906392605,31.435 V42.73 H37.54815749516041 V9.79 H44.05165559609682 V12.58 C45.73936427553446,10.48 48.19818123092205,9.43 51.428106462259606,9.43 zM50.24962022920401,28.6 C51.995525759656736,28.6 53.42134860952647,28 54.527088778813194,26.8 C55.66192737360747,25.57 56.229346671004606,23.935 56.229346671004606,21.895 C56.229346671004606,19.855 55.66192737360747,18.235 54.527088778813194,17.035 C53.42134860952647,15.805 51.995525759656736,15.19 50.24962022920401,15.19 C48.50371469875129,15.19 47.063342636127786,15.805 45.92850404133351,17.035 C44.82276387204678,18.235 44.26989378740342,19.855 44.26989378740342,21.895 C44.26989378740342,23.935 44.82276387204678,25.57 45.92850404133351,26.8 C47.063342636127786,28 48.50371469875129,28.6 50.24962022920401,28.6 zM74.1873429782346,12.985 C75.00209889244587,11.815 76.09328984897883,10.93 77.46091584783346,10.33 C78.85764027219565,9.73 80.45805367511065,9.43 82.26215605657848,9.43 V15.91 C81.50559699338228,15.85 80.99637454700024,15.82 80.73448871743233,15.82 C78.78489420842678,15.82 77.25722686928064,16.39 76.15148669999392,17.53 C75.04574653070719,18.64 74.49287644606383,20.32 74.49287644606383,22.57 V34 H67.68384487729818 V9.79 H74.1873429782346 V12.985 zM109.10011887594612,21.985 C109.10011887594612,22.075 109.0564712376848,22.705 108.96917596116216,23.875 H91.20439319930226 C91.52447587988527,25.375 92.28103494308144,26.56 93.47407038889081,27.43 C94.66710583470018,28.3 96.151125535585,28.735 97.92632348104866,28.735 C99.14845735236557,28.735 100.22509909614475,28.555 101.1562487123862,28.195 C102.1164967541352,27.805 103.00399873211535,27.205 103.81875464632661,26.395 L107.44150862201602,30.445 C105.23002828344256,33.055 102.00010305210502,34.36 97.75173292800338,34.36 C95.10358221731336,34.36 92.76115896395595,33.835 90.72426917842778,32.785 C88.68737939289957,31.705 87.11606441549213,30.22 86.0103242462054,28.33 C84.90458407691868,26.44 84.35171399227531,24.295 84.35171399227531,21.895 C84.35171399227531,19.525 84.8900348641649,17.395 85.96667660794408,15.505 C87.07241677723081,13.585 88.5709856908694,12.1 90.46238334885985,11.05 C92.38287943235785,9.97 94.52161370716244,9.43 96.87858617327363,9.43 C99.17755577787311,9.43 101.2580932016626,9.94 103.12039243414551,10.96 C104.98269166662843,11.98 106.4376129420057,13.45 107.48515626027734,15.37 C108.56179800405653,17.26 109.10011887594612,19.465 109.10011887594612,21.985 zM96.92223381153495,14.74 C95.38001725963504,14.74 94.08513732454928,15.19 93.03759400627763,16.09 C91.990050688006,16.99 91.34988532684,18.22 91.11709792277964,19.78 H102.68391605153234 C102.45112864747198,18.25 101.81096328630598,17.035 100.76341996803434,16.135 C99.7158766497627,15.205 98.4355459274307,14.74 96.92223381153495,14.74 zM127.90643128147275,9.43 C130.8162738322273,9.43 133.15869708558472,10.33 134.93370104154496,12.13 C136.7378034230128,13.93 137.6398546137467,16.6 137.6398546137467,20.14 V34 H130.83082304498106 V21.22 C130.83082304498106,19.3 130.42344508787545,17.875 129.60868917366417,16.945 C128.7939332594529,15.985 127.61544702639729,15.505 126.07323047449741,15.505 C124.3564233695522,15.505 122.98879737069757,16.06 121.97035247793347,17.17 C120.95190758516938,18.25 120.44268513878734,19.87 120.44268513878734,22.03 V34 H113.63365357002169 V9.79 H120.1371516709581 V12.625 C121.03920286169202,11.605 122.15949224373253,10.825 123.49801981707961,10.285 C124.83654739042672,9.715 126.30601787855775,9.43 127.90643128147275,9.43 zM167.98563262804896,0.6099980000000002 V34 H161.48213452711258 V31.21 C159.79442584767492,33.31 157.3501581050411,34.36 154.1493312992111,34.36 C151.93785096063766,34.36 149.93005960061697,33.85 148.1259572191492,32.83 C146.3509532631889,31.81 144.95422883882674,30.355 143.93578394606266,28.465 C142.91733905329852,26.575 142.4081166069165,24.385 142.4081166069165,21.895 C142.4081166069165,19.405 142.91733905329852,17.215 143.93578394606266,15.325 C144.95422883882674,13.435 146.3509532631889,11.98 148.1259572191492,10.96 C149.93005960061697,9.94 151.93785096063766,9.43 154.1493312992111,9.43 C157.14646912648828,9.43 159.4888923798457,10.405 161.1766010592833,12.355 V0.6099980000000002 H167.98563262804896 zM155.3278175322667,28.6 C157.04462463721188,28.6 158.47044748708157,28 159.60528608187587,26.8 C160.74012467667012,25.57 161.3075439740673,23.935 161.3075439740673,21.895 C161.3075439740673,19.855 160.74012467667012,18.235 159.60528608187587,17.035 C158.47044748708157,15.805 157.04462463721188,15.19 155.3278175322667,15.19 C153.58191200181398,15.19 152.14153993919047,15.805 151.00670134439616,17.035 C149.87186274960192,18.235 149.3044434522048,19.855 149.3044434522048,21.895 C149.3044434522048,23.935 149.87186274960192,25.57 151.00670134439616,26.8 C152.14153993919047,28 153.58191200181398,28.6 155.3278175322667,28.6 zM197.290656956698,21.985 C197.290656956698,22.075 197.2470093184367,22.705 197.15971404191407,23.875 H179.39512526955752 C179.71520795014055,25.375 180.47176701333672,26.56 181.66480245914607,27.43 C182.85783790495543,28.3 184.3418576058403,28.735 186.11686156180053,28.735 C187.33899543311747,28.735 188.41563717689667,28.555 189.3467867931381,28.195 C190.30703483488708,27.805 191.19453681286723,27.205 192.0092927270785,26.395 L195.63204670276792,30.445 C193.42056636419449,33.055 190.1906411328569,34.36 185.94227100875526,34.36 C183.29431428756862,34.36 180.9518910342112,33.835 178.91500124868304,32.785 C176.87811146315488,31.705 175.30679648574738,30.22 174.20105631646067,28.33 C173.09531614717395,26.44 172.5424460625306,24.295 172.5424460625306,21.895 C172.5424460625306,19.525 173.08076693442018,17.395 174.15740867819937,15.505 C175.2631488474861,13.585 176.76171776112466,12.1 178.65311541911512,11.05 C180.57361150261312,9.97 182.71234577741774,9.43 185.06931824352893,9.43 C187.368093858625,9.43 189.4486312824145,9.94 191.3109305148974,10.96 C193.17322974738033,11.98 194.6281510227576,13.45 195.6756943410292,15.37 C196.7523360848084,17.26 197.290656956698,19.465 197.290656956698,21.985 zM185.11296588179022,14.74 C183.5707493298903,14.74 182.27586939480454,15.19 181.22832607653288,16.09 C180.18078275826127,16.99 179.54061739709528,18.22 179.3078299930349,19.78 H190.87445413228426 C190.64166672822387,18.25 190.00150136705787,17.035 188.9539580487862,16.135 C187.9064147305146,15.205 186.6260840081826,14.74 185.11296588179022,14.74 zM238.1041085735813,0.6099980000000002 V34 H231.60061047264486 V31.21 C229.91290179320725,33.31 227.46863405057343,34.36 224.26780724474344,34.36 C222.05632690616994,34.36 220.0485355461493,33.85 218.24443316468148,32.83 C216.46942920872124,31.81 215.07270478435902,30.355 214.05425989159494,28.465 C213.03581499883086,26.575 212.5265925524488,24.385 212.5265925524488,21.895 C212.5265925524488,19.405 213.03581499883086,17.215 214.05425989159494,15.325 C215.07270478435902,13.435 216.46942920872124,11.98 218.24443316468148,10.96 C220.0485355461493,9.94 222.05632690616994,9.43 224.26780724474344,9.43 C227.26494507202062,9.43 229.607368325378,10.405 231.29507700481565,12.355 V0.6099980000000002 H238.1041085735813 zM225.44629347779903,28.6 C227.16310058274416,28.6 228.5889234326139,28 229.7237620274082,26.8 C230.85860062220246,25.57 231.42601991959958,23.935 231.42601991959958,21.895 C231.42601991959958,19.855 230.85860062220246,18.235 229.7237620274082,17.035 C228.5889234326139,15.805 227.16310058274416,15.19 225.44629347779903,15.19 C223.70038794734626,15.19 222.26001588472275,15.805 221.1251772899285,17.035 C219.99033869513426,18.235 219.42291939773708,19.855 219.42291939773708,21.895 C219.42291939773708,23.935 219.99033869513426,25.57 221.1251772899285,26.8 C222.26001588472275,28 223.70038794734626,28.6 225.44629347779903,28.6 zM267.4081629547134,21.985 C267.4081629547134,22.075 267.3645153164521,22.705 267.2772200399295,23.875 H249.512631267573 C249.83271394815597,25.375 250.58927301135213,26.56 251.7823084571615,27.43 C252.9753439029709,28.3 254.45936360385565,28.735 256.23436755981595,28.735 C257.4565014311329,28.735 258.533143174912,28.555 259.4642927911535,28.195 C260.42454083290255,27.805 261.31204281088264,27.205 262.1267987250939,26.395 L265.74955270078334,30.445 C263.5380723622099,33.055 260.3081471308723,34.36 256.05977700677073,34.36 C253.41182028558404,34.36 251.06939703222662,33.835 249.03250724669846,32.785 C246.99561746117024,31.705 245.4243024837628,30.22 244.31856231447608,28.33 C243.21282214518936,26.44 242.659952060546,24.295 242.659952060546,21.895 C242.659952060546,19.525 243.1982729324356,17.395 244.27491467621473,15.505 C245.3806548455015,13.585 246.87922375914007,12.1 248.77062141713054,11.05 C250.69111750062854,9.97 252.8298517754331,9.43 255.1868242415443,9.43 C257.4855998566404,9.43 259.5661372804299,9.94 261.4284365129128,10.96 C263.29073574539575,11.98 264.745657020773,13.45 265.79320033904463,15.37 C266.8698420828238,17.26 267.4081629547134,19.465 267.4081629547134,21.985 zM255.23047187980563,14.74 C253.68825532790572,14.74 252.39337539281996,15.19 251.3458320745483,16.09 C250.2982887562767,16.99 249.6581233951107,18.22 249.4253359910503,19.78 H260.9919601302997 C260.7591727262393,18.25 260.1190073650733,17.035 259.0714640468016,16.135 C258.02392072853,15.205 256.743590006198,14.74 255.23047187980563,14.74 zM284.30270880439434,0.6099980000000002 H291.11174037316 V34 H284.30270880439434 V0.6099980000000002 zM306.902485948588,9.43 C310.53978913703116,9.43 313.33323798575555,10.33 315.28283249476107,12.13 C317.23242700376665,13.9 318.2072242582694,16.585 318.2072242582694,20.185 V34 H311.8346690721169 V30.985 C310.5543383497849,33.235 308.1682674581662,34.36 304.6764563972608,34.36 C302.87235401579295,34.36 301.30103903838545,34.045 299.9625114650384,33.415 C298.6530823171988,32.785 297.6491866371885,31.915 296.9508244250074,30.805 C296.25246221282634,29.695 295.9032811067358,28.435 295.9032811067358,27.025 C295.9032811067358,24.775 296.71803702094707,23.005 298.3475488493696,21.715 C300.0061591032997,20.425 302.5522713352099,19.78 305.9858855451003,19.78 H311.3981926895038 C311.3981926895038,18.25 310.9471670941368,17.08 310.04511590340286,16.27 C309.14306471266895,15.43 307.78998792656813,15.01 305.9858855451003,15.01 C304.73465324827583,15.01 303.4979701642051,15.22 302.27583629288824,15.64 C301.0828008470789,16.03 300.0643559543148,16.57 299.220501614596,17.26 L296.7762338719621,12.355 C298.0565645942942,11.425 299.5842319334403,10.705 301.35923588940057,10.195 C303.1633382708684,9.685 305.0110882905975,9.43 306.902485948588,9.43 zM306.37871428945215,29.635 C307.542651309754,29.635 308.5756454152718,29.365 309.47769660600574,28.825 C310.37974779673965,28.255 311.01991315790565,27.43 311.3981926895038,26.35 V23.875 H306.7278953955427 C303.9344465468184,23.875 302.53772212245616,24.82 302.53772212245616,26.71 C302.53772212245616,27.61 302.87235401579295,28.33 303.5416178024665,28.87 C304.2399800146476,29.38 305.1856788436428,29.635 306.37871428945215,29.635 zM366.80353475090413,9.43 C369.74247572716627,9.43 372.07034976776987,10.33 373.7871568727151,12.13 C375.5330624031678,13.9 376.40601516839416,16.57 376.40601516839416,20.14 V34 H369.5969835996285 V21.22 C369.5969835996285,19.3 369.20415485527667,17.875 368.4184973665729,16.945 C367.66193830337676,15.985 366.5707473468438,15.505 365.14492449697406,15.505 C363.5445110940591,15.505 362.27872958448086,16.045 361.34757996823936,17.125 C360.4164303519979,18.175 359.9508555438772,19.75 359.9508555438772,21.85 V34 H353.14182397511155 V21.22 C353.14182397511155,17.41 351.65780427422675,15.505 348.68976487245715,15.505 C347.11844989504965,15.505 345.8672175982252,16.045 344.93606798198374,17.125 C344.0049183657423,18.175 343.5393435576216,19.75 343.5393435576216,21.85 V34 H336.73031198885593 V9.79 H343.23381008979237 V12.58 C344.1067628550187,11.56 345.16885538604413,10.78 346.42008768286854,10.24 C347.70041840520054,9.7 349.09714282956276,9.43 350.6102609559551,9.43 C352.2688712098852,9.43 353.7674401235238,9.775 355.1059676968709,10.465 C356.444495270218,11.125 357.52113701399713,12.1 358.33589292820847,13.39 C359.29614096995743,12.13 360.50372562852056,11.155 361.95864690389783,10.465 C363.4426666047827,9.775 365.0576292204515,9.43 366.80353475090413,9.43 zM391.98143239506635,9.43 C395.61873558350953,9.43 398.4121844322339,10.33 400.36177894123944,12.13 C402.31137345024496,13.9 403.28617070474775,16.585 403.28617070474775,20.185 V34 H396.9136155185953 V30.985 C395.6332847962633,33.235 393.2472139046446,34.36 389.7554028437391,34.36 C387.95130046227126,34.36 386.3799854848639,34.045 385.0414579115167,33.415 C383.7320287636772,32.785 382.7281330836669,31.915 382.0297708714858,30.805 C381.3314086593047,29.695 380.98222755321416,28.435 380.98222755321416,27.025 C380.98222755321416,24.775 381.79698346742543,23.005 383.426495295848,21.715 C385.08510554977806,20.425 387.6312177816883,19.78 391.06483199157867,19.78 H396.4771391359821 C396.4771391359821,18.25 396.0261135406152,17.08 395.1240623498813,16.27 C394.22201115914737,15.43 392.8689343730465,15.01 391.06483199157867,15.01 C389.8135996947542,15.01 388.57691661068355,15.22 387.3547827393666,15.64 C386.16174729355726,16.03 385.1433024007932,16.57 384.2994480610743,17.26 L381.85518031844055,12.355 C383.13551104077254,11.425 384.66317837991863,10.705 386.43818233587893,10.195 C388.24228471734676,9.685 390.0900347370759,9.43 391.98143239506635,9.43 zM391.4576607359305,29.635 C392.62159775623235,29.635 393.65459186175025,29.365 394.5566430524841,28.825 C395.458694243218,28.255 396.098859604384,27.43 396.4771391359821,26.35 V23.875 H391.8068418420211 C389.0133929932967,23.875 387.61666856893453,24.82 387.61666856893453,26.71 C387.61666856893453,27.61 387.95130046227126,28.33 388.62056424894485,28.87 C389.31892646112595,29.38 390.26462529012116,29.635 391.4576607359305,29.635 zM423.72102499118006,9.43 C426.6308675419346,9.43 428.973290795292,10.33 430.7482947512523,12.13 C432.55239713272005,13.93 433.45444832345396,16.6 433.45444832345396,20.14 V34 H426.64541675468837 V21.22 C426.64541675468837,19.3 426.2380387975827,17.875 425.4232828833714,16.945 C424.60852696916015,15.985 423.43004073610456,15.505 421.88782418420465,15.505 C420.17101707925946,15.505 418.8033910804049,16.06 417.78494618764074,17.17 C416.76650129487666,18.25 416.25727884849465,19.87 416.25727884849465,22.03 V34 H409.44824727972895 V9.79 H415.9517453806654 V12.625 C416.8537965713993,11.605 417.9740859534398,10.825 419.3126135267869,10.285 C420.651141100134,9.715 422.12061158826504,9.43 423.72102499118006,9.43 zM451.05608591296823,34.36 C448.5827197448269,34.36 446.3566901934997,33.835 444.37799725898657,32.785 C442.428402749981,31.705 440.9007354108349,30.22 439.7949952415482,28.33 C438.6892550722614,26.44 438.13638498761804,24.295 438.13638498761804,21.895 C438.13638498761804,19.495 438.6892550722614,17.35 439.7949952415482,15.46 C440.9007354108349,13.57 442.428402749981,12.1 444.37799725898657,11.05 C446.3566901934997,9.97 448.5827197448269,9.43 451.05608591296823,9.43 C453.5294520811096,9.43 455.7409324196831,9.97 457.6905269286886,11.05 C459.6401214376942,12.1 461.16778877684027,13.57 462.273528946127,15.46 C463.37926911541376,17.35 463.9321392000571,19.495 463.9321392000571,21.895 C463.9321392000571,24.295 463.37926911541376,26.44 462.273528946127,28.33 C461.16778877684027,30.22 459.6401214376942,31.705 457.6905269286886,32.785 C455.7409324196831,33.835 453.5294520811096,34.36 451.05608591296823,34.36 zM451.05608591296823,28.6 C452.80199144342095,28.6 454.2278142932907,28 455.3335544625774,26.8 C456.4683930573717,25.57 457.03581235476884,23.935 457.03581235476884,21.895 C457.03581235476884,19.855 456.4683930573717,18.235 455.3335544625774,17.035 C454.2278142932907,15.805 452.80199144342095,15.19 451.05608591296823,15.19 C449.3101803825155,15.19 447.869808319892,15.805 446.73496972509776,17.035 C445.60013113030345,18.235 445.03271183290633,19.855 445.03271183290633,21.895 C445.03271183290633,23.935 445.60013113030345,25.57 446.73496972509776,26.8 C447.869808319892,28 449.3101803825155,28.6 451.05608591296823,28.6 zM504.76304987224495,0.6099980000000002 V34 H498.2595517713085 V31.21 C496.5718430918709,33.31 494.127575349237,34.36 490.9267485434071,34.36 C488.7152682048336,34.36 486.70747684481296,33.85 484.90337446334513,32.83 C483.1283705073849,31.81 481.73164608302267,30.355 480.7132011902586,28.465 C479.6947562974945,26.575 479.18553385111244,24.385 479.18553385111244,21.895 C479.18553385111244,19.405 479.6947562974945,17.215 480.7132011902586,15.325 C481.73164608302267,13.435 483.1283705073849,11.98 484.90337446334513,10.96 C486.70747684481296,9.94 488.7152682048336,9.43 490.9267485434071,9.43 C493.9238863706842,9.43 496.26630962404164,10.405 497.9540183034793,12.355 V0.6099980000000002 H504.76304987224495 zM492.1052347764626,28.6 C493.8220418814078,28.6 495.24786473127756,28 496.38270332607186,26.8 C497.5175419208661,25.57 498.08496121826323,23.935 498.08496121826323,21.895 C498.08496121826323,19.855 497.5175419208661,18.235 496.38270332607186,17.035 C495.24786473127756,15.805 493.8220418814078,15.19 492.1052347764626,15.19 C490.3593292460099,15.19 488.9189571833864,15.805 487.78411858859215,17.035 C486.64927999379785,18.235 486.0818606964007,19.855 486.0818606964007,21.895 C486.0818606964007,23.935 486.64927999379785,25.57 487.78411858859215,26.8 C488.9189571833864,28 490.3593292460099,28.6 492.1052347764626,28.6 zM534.068074200894,21.985 C534.068074200894,22.075 534.0244265626327,22.705 533.93713128611,23.875 H516.1725425137536 C516.4926251943365,25.375 517.2491842575326,26.56 518.4422197033421,27.43 C519.6352551491514,28.3 521.1192748500362,28.735 522.8942788059965,28.735 C524.1164126773134,28.735 525.1930544210926,28.555 526.124204037334,28.195 C527.0844520790831,27.805 527.9719540570632,27.205 528.7867099712745,26.395 L532.4094639469638,30.445 C530.1979836083904,33.055 526.9680583770529,34.36 522.7196882529513,34.36 C520.0717315317646,34.36 517.7293082784072,33.835 515.692418492879,32.785 C513.6555287073509,31.705 512.0842137299434,30.22 510.97847356065665,28.33 C509.87273339136993,26.44 509.3198633067265,24.295 509.3198633067265,21.895 C509.3198633067265,19.525 509.85818417861606,17.395 510.93482592239525,15.505 C512.040566091682,13.585 513.5391350053206,12.1 515.430532663311,11.05 C517.3510287468091,9.97 519.4897630216137,9.43 521.8467354877248,9.43 C524.1455111028209,9.43 526.2260485266104,9.94 528.0883477590934,10.96 C529.9506469915763,11.98 531.4055682669535,13.45 532.4531115852252,15.37 C533.5297533290044,17.26 534.068074200894,19.465 534.068074200894,21.985 zM521.8903831259862,14.74 C520.3481665740862,14.74 519.0532866390005,15.19 518.0057433207289,16.09 C516.9582000024573,16.99 516.3180346412912,18.22 516.0852472372309,19.78 H527.6518713764801 C527.4190839724198,18.25 526.7789186112539,17.035 525.7313752929822,16.135 C524.6838319747105,15.205 523.4035012523785,14.74 521.8903831259862,14.74 zM4.130458700026583,55.61 H10.939490268792223 V89 H4.130458700026583 V55.61 zM28.432687725915027,89.36 C25.959321557773663,89.36 23.73329200644643,88.835 21.75459907193334,87.785 C19.805004562927795,86.705 18.277337223781654,85.22 17.17159705449493,83.33 C16.065856885208202,81.44 15.512986800564835,79.295 15.512986800564835,76.895 C15.512986800564835,74.495 16.065856885208202,72.35 17.17159705449493,70.46 C18.277337223781654,68.57 19.805004562927795,67.1 21.75459907193334,66.05 C23.73329200644643,64.97 25.959321557773663,64.43 28.432687725915027,64.43 C30.906053894056388,64.43 33.11753423262984,64.97 35.06712874163539,66.05 C37.01672325064094,67.1 38.54439058978708,68.57 39.650130759073804,70.46 C40.75587092836053,72.35 41.308741013003896,74.495 41.308741013003896,76.895 C41.308741013003896,79.295 40.75587092836053,81.44 39.650130759073804,83.33 C38.54439058978708,85.22 37.01672325064094,86.705 35.06712874163539,87.785 C33.11753423262984,88.835 30.906053894056388,89.36 28.432687725915027,89.36 zM28.432687725915027,83.6 C30.17859325636775,83.6 31.60441610623748,83 32.710156275524206,81.8 C33.84499487031848,80.57 34.41241416771562,78.935 34.41241416771562,76.895 C34.41241416771562,74.855 33.84499487031848,73.235 32.710156275524206,72.035 C31.60441610623748,70.805 30.17859325636775,70.19 28.432687725915027,70.19 C26.6867821954623,70.19 25.246410132838797,70.805 24.111571538044522,72.035 C22.97673294325025,73.235 22.409313645853114,74.855 22.409313645853114,76.895 C22.409313645853114,78.935 22.97673294325025,80.57 24.111571538044522,81.8 C25.246410132838797,83 26.6867821954623,83.6 28.432687725915027,83.6 zM53.76024827193768,89.36 C51.810653762932134,89.36 49.9047068921879,89.12 48.042407659705,88.64 C46.18010842722209,88.13 44.696088726337265,87.5 43.59034855705054,86.75 L45.86002574663909,81.71 C46.907569064910724,82.4 48.17335057448895,82.97 49.65737027537377,83.42 C51.14138997625859,83.84 52.59631125163586,84.05 54.02213410150559,84.05 C56.90287822675259,84.05 58.343250289376094,83.315 58.343250289376094,81.845 C58.343250289376094,81.155 57.95042154502423,80.66 57.1647640563205,80.36 C56.37910656761677,80.06 55.17152190905363,79.805 53.54201008063109,79.595 C51.621513997133086,79.295 50.03564980697186,78.95 48.78441751014741,78.56 C47.533185213322945,78.17 46.44199425678999,77.48 45.51084464054854,76.49 C44.60879344981463,75.5 44.15776785444768,74.09 44.15776785444768,72.26 C44.15776785444768,70.73 44.579695024307085,69.38 45.4235493640259,68.21 C46.29650212925227,67.01 47.54773442607672,66.08 49.177246254499266,65.42 C50.83585650842936,64.76 52.78545101743491,64.43 55.02602978151591,64.43 C56.684640035446,64.43 58.328701076622316,64.625 59.95821290504487,65.015 C61.61682315897496,65.375 62.9844491578296,65.885 64.06109090160878,66.545 L61.79141371202023,71.54 C59.7254255009845,70.34 57.47029752414973,69.74 55.02602978151591,69.74 C53.571108506138636,69.74 52.47991754960568,69.95 51.752456911917044,70.37 C51.02499627422841,70.79 50.66126595538409,71.33 50.66126595538409,71.99 C50.66126595538409,72.74 51.05409469973595,73.265 51.83975218843968,73.565 C52.6254096771434,73.865 53.876641973967864,74.15 55.593449078913046,74.42 C57.51394516241105,74.75 59.0852601398185,75.11 60.30739401113541,75.5 C61.52952788245232,75.86 62.591620413477735,76.535 63.493671604211634,77.525 C64.39572279494556,78.515 64.84674839031251,79.895 64.84674839031251,81.665 C64.84674839031251,83.165 64.41027200769932,84.5 63.537319242472954,85.67 C62.6643664772466,86.84 61.38403575491459,87.755 59.69632707547696,88.415 C58.037716821546866,89.045 56.059023887033774,89.36 53.76024827193768,89.36 zM111.48230997749718,64.43 C114.42125095375926,64.43 116.7491249943629,65.33 118.46593209930808,67.13 C120.21183762976082,68.9 121.08479039498718,71.57 121.08479039498718,75.14 V89 H114.27575882622153 V76.22 C114.27575882622153,74.3 113.88293008186967,72.875 113.09727259316594,71.945 C112.34071352996976,70.985 111.2495225734368,70.505 109.82369972356707,70.505 C108.22328632065208,70.505 106.95750481107385,71.045 106.0263551948324,72.125 C105.09520557859094,73.175 104.62963077047021,74.75 104.62963077047021,76.85 V89 H97.82059920170457 V76.22 C97.82059920170457,72.41 96.33648250606805,70.505 93.36844310429844,70.505 C91.79712812689097,70.505 90.54589583006651,71.045 89.61474621382506,72.125 C88.6835965975836,73.175 88.21802178946288,74.75 88.21802178946288,76.85 V89 H81.40899022069723 V64.79 H87.91248832163366 V67.58 C88.78544108686,66.56 89.84753361788542,65.78 91.09876591470989,65.24 C92.37909663704187,64.7 93.77582106140406,64.43 95.28893918779642,64.43 C96.94754944172652,64.43 98.4462153501168,64.775 99.7847429234639,65.465 C101.12327049681099,66.125 102.19991224059017,67.1 103.01466815480144,68.39 C103.97491619655044,67.13 105.18250085511357,66.155 106.63742213049085,65.465 C108.12144183137568,64.775 109.73640444704444,64.43 111.48230997749718,64.43 zM150.4460716796175,76.985 C150.4460716796175,77.075 150.40242404135614,77.705 150.3151287648335,78.875 H132.550539992477 C132.87062267305998,80.375 133.6271817362562,81.56 134.82021718206556,82.43 C136.01325262787492,83.3 137.49727232875972,83.735 139.27227628472002,83.735 C140.4944101560369,83.735 141.5710518998161,83.555 142.50220151605754,83.195 C143.46244955780656,82.805 144.34995153578672,82.205 145.164707449998,81.395 L148.78746142568735,85.445 C146.57598108711392,88.055 143.3460558557764,89.36 139.09768573167474,89.36 C136.4497290104881,89.36 134.1073057571307,88.835 132.07041597160253,87.785 C130.0335261860743,86.705 128.46221120866687,85.22 127.35647103938014,83.33 C126.25073087009342,81.44 125.69786078545006,79.295 125.69786078545006,76.895 C125.69786078545006,74.525 126.23618165733963,72.395 127.31282340111883,70.505 C128.41856357040552,68.585 129.91713248404415,67.1 131.8085301420346,66.05 C133.7290262255326,64.97 135.86776050033717,64.43 138.22473296644836,64.43 C140.5235085815445,64.43 142.60404600533394,64.94 144.46634523781688,65.96 C146.32864447029976,66.98 147.78356574567704,68.45 148.8311090639487,70.37 C149.9077508077279,72.26 150.4460716796175,74.465 150.4460716796175,76.985 zM138.2683806047097,69.74 C136.7261640528098,69.74 135.43128411772403,70.19 134.38374079945237,71.09 C133.33619748118076,71.99 132.6960321200147,73.22 132.46324471595437,74.78 H144.0298688552037 C143.79708145114336,73.25 143.15691608997736,72.035 142.1093727717057,71.135 C141.06182945343403,70.205 139.78149873110203,69.74 138.2683806047097,69.74 zM153.23273089572342,98.09 C150.8466600041047,98.09 149.0280084098831,97.64 147.77677611305865,96.74 L149.609976920034,91.655 C150.39563440873775,92.225 151.35588245048672,92.51 152.49072104528102,92.51 C153.36367381050735,92.51 154.0474868099347,92.21 154.54216004356294,91.61 C155.03683327719125,91.04 155.28416989400534,90.17 155.28416989400534,89 V64.79 H162.093201462771 V88.955 C162.093201462771,91.775 161.3075439740673,93.995 159.7362289966598,95.615 C158.1940124447599,97.265 156.0261797444478,98.09 153.23273089572342,98.09 zM158.6886856783882,61.415 C157.43745338156373,61.415 156.41900848879965,61.04 155.6333510000959,60.29 C154.8476935113922,59.54 154.4548647670403,58.61 154.4548647670403,57.5 C154.4548647670403,56.39 154.8476935113922,55.46 155.6333510000959,54.71 C156.41900848879965,53.96 157.43745338156373,53.585 158.6886856783882,53.585 C159.93991797521267,53.585 160.95836286797675,53.945 161.74402035668044,54.665 C162.52967784538419,55.385 162.92250658973603,56.285 162.92250658973603,57.365 C162.92250658973603,58.535 162.52967784538419,59.51 161.74402035668044,60.29 C160.95836286797675,61.04 159.93991797521267,61.415 158.6886856783882,61.415 zM179.5367376070276,89.36 C177.06337143888624,89.36 174.83734188755898,88.835 172.85864895304593,87.785 C170.90905444404035,86.705 169.3813871048942,85.22 168.27564693560748,83.33 C167.16990676632076,81.44 166.6170366816774,79.295 166.6170366816774,76.895 C166.6170366816774,74.495 167.16990676632076,72.35 168.27564693560748,70.46 C169.3813871048942,68.57 170.90905444404035,67.1 172.85864895304593,66.05 C174.83734188755898,64.97 177.06337143888624,64.43 179.5367376070276,64.43 C182.01010377516894,64.43 184.22158411374244,64.97 186.17117862274796,66.05 C188.12077313175354,67.1 189.64844047089963,68.57 190.75418064018635,70.46 C191.85992080947312,72.35 192.41279089411648,74.495 192.41279089411648,76.895 C192.41279089411648,79.295 191.85992080947312,81.44 190.75418064018635,83.33 C189.64844047089963,85.22 188.12077313175354,86.705 186.17117862274796,87.785 C184.22158411374244,88.835 182.01010377516894,89.36 179.5367376070276,89.36 zM179.5367376070276,83.6 C181.2826431374803,83.6 182.70846598735005,83 183.81420615663677,81.8 C184.94904475143107,80.57 185.5164640488282,78.935 185.5164640488282,76.895 C185.5164640488282,74.855 184.94904475143107,73.235 183.81420615663677,72.035 C182.70846598735005,70.805 181.2826431374803,70.19 179.5367376070276,70.19 C177.79083207657487,70.19 176.35046001395136,70.805 175.21562141915712,72.035 C174.0807828243628,73.235 173.5133635269657,74.855 173.5133635269657,76.895 C173.5133635269657,78.935 174.0807828243628,80.57 175.21562141915712,81.8 C176.35046001395136,83 177.79083207657487,83.6 179.5367376070276,83.6 zM203.46825269194989,67.985 C204.28300860616116,66.815 205.37419956269412,65.93 206.74182556154875,65.33 C208.13854998591097,64.73 209.73896338882594,64.43 211.54306577029377,64.43 V70.91 C210.7865067070976,70.85 210.27728426071553,70.82 210.01539843114762,70.82 C208.0658039221421,70.82 206.53813658299595,71.39 205.43239641370923,72.53 C204.3266562444225,73.64 203.77378615977915,75.32 203.77378615977915,77.57 V89 H196.9647545910135 V64.79 H203.46825269194989 V67.985 zM238.38054361590298,76.985 C238.38054361590298,77.075 238.33689597764163,77.705 238.249600701119,78.875 H220.4850119287625 C220.80509460934547,80.375 221.5616536725417,81.56 222.75468911835105,82.43 C223.9477245641604,83.3 225.4317442650452,83.735 227.2067482210055,83.735 C228.4288820923224,83.735 229.5055238361016,83.555 230.43667345234303,83.195 C231.39692149409206,82.805 232.2844234720722,82.205 233.09917938628348,81.395 L236.7219333619729,85.445 C234.5104530233994,88.055 231.2805277920619,89.36 227.03215766796023,89.36 C224.3842009467736,89.36 222.04177769341618,88.835 220.00488790788802,87.785 C217.9679981223598,86.705 216.39668314495236,85.22 215.29094297566564,83.33 C214.18520280637892,81.44 213.63233272173557,79.295 213.63233272173557,76.895 C213.63233272173557,74.525 214.17065359362516,72.395 215.2472953374043,70.505 C216.35303550669107,68.585 217.85160442032964,67.1 219.7430020783201,66.05 C221.6634981618181,64.97 223.80223243662266,64.43 226.15920490273385,64.43 C228.45798051782998,64.43 230.5385179416195,64.94 232.40081717410237,65.96 C234.26311640658525,66.98 235.71803768196253,68.45 236.7655810002342,70.37 C237.84222274401338,72.26 238.38054361590298,74.465 238.38054361590298,76.985 zM226.2028525409952,69.74 C224.66063598909528,69.74 223.36575605400952,70.19 222.31821273573786,71.09 C221.27066941746625,71.99 220.63050405630025,73.22 220.39771665223986,74.78 H231.96434079148918 C231.73155338742885,73.25 231.09138802626285,72.035 230.04384470799118,71.135 C228.99630138971958,70.205 227.71597066738752,69.74 226.2028525409952,69.74 zM250.81430083527715,89.36 C248.86470632627163,89.36 246.9587594555274,89.12 245.09646022304446,88.64 C243.23416099056158,88.13 241.75014128967672,87.5 240.64440112039,86.75 L242.91407830997855,81.71 C243.9616216282502,82.4 245.2274031378284,82.97 246.71142283871325,83.42 C248.19544253959805,83.84 249.65036381497538,84.05 251.07618666484507,84.05 C253.9569307900921,84.05 255.39730285271554,83.315 255.39730285271554,81.845 C255.39730285271554,81.155 255.0044741083637,80.66 254.21881661965995,80.36 C253.43315913095626,80.06 252.22557447239308,79.805 250.59606264397053,79.595 C248.6755665604726,79.295 247.08970237031133,78.95 245.83847007348686,78.56 C244.5872377766624,78.17 243.49604682012944,77.48 242.564897203888,76.49 C241.66284601315408,75.5 241.21182041778712,74.09 241.21182041778712,72.26 C241.21182041778712,70.73 241.63374758764655,69.38 242.47760192736536,68.21 C243.35055469259174,67.01 244.6017869894162,66.08 246.23129881783876,65.42 C247.88990907176884,64.76 249.83950358077436,64.43 252.08008234485538,64.43 C253.73869259878546,64.43 255.38275363996178,64.625 257.0122654683843,65.015 C258.6708757223144,65.375 260.0385017211691,65.885 261.1151434649483,66.545 L258.8454662753597,71.54 C256.779478064324,70.34 254.5243500874892,69.74 252.08008234485538,69.74 C250.6251610694781,69.74 249.53397011294516,69.95 248.80650947525652,70.37 C248.07904883756788,70.79 247.71531851872356,71.33 247.71531851872356,71.99 C247.71531851872356,72.74 248.1081472630754,73.265 248.89380475177916,73.565 C249.67946224048285,73.865 250.93069453730732,74.15 252.6475016422525,74.42 C254.5679977257505,74.75 256.139312703158,75.11 257.3614465744749,75.5 C258.5835804457918,75.86 259.64567297681725,76.535 260.5477241675511,77.525 C261.449775358285,78.515 261.900800953652,79.895 261.900800953652,81.665 C261.900800953652,83.165 261.46432457103884,84.5 260.59137180581246,85.67 C259.71841904058607,86.84 258.4380883182541,87.755 256.75037963881647,88.415 C255.09176938488633,89.045 253.11307645037323,89.36 250.81430083527715,89.36 z" fill="#ffffff" id="svg_1" class="selected" fill-opacity="1"/></g></svg>