<svg xmlns="http://www.w3.org/2000/svg" width="255.34710693359375" height="44" fill="none" style=""><rect id="backgroundrect" width="100%" height="100%" x="0" y="0" fill="none" stroke="none" class="" style=""/>

<g class="currentLayer" style=""><title>Layer 1</title><path d="M-264.03792749689484,27.25 H-278.50909596192474 L-281.2697496383304,34 H-288.6611772235457 L-274.768855497117,2.5 H-267.6445879451023 L-253.7077395464735,34 H-261.27727382048914 L-264.03792749689484,27.25 zM-266.3087877790996,21.715 L-271.25124839330977,9.655 L-276.19370900751994,21.715 H-266.3087877790996 zM-236.80432634955375,9.43 C-234.57799273954916,9.43 -232.55945026647834,9.955 -230.74869893034125,11.005 C-228.9082631460708,12.025 -227.46856741160116,13.48 -226.42961172693234,15.37 C-225.39065604226354,17.23 -224.87117819992918,19.405 -224.87117819992918,21.895 C-224.87117819992918,24.385 -225.39065604226354,26.575 -226.42961172693234,28.465 C-227.46856741160116,30.325 -228.9082631460708,31.78 -230.74869893034125,32.83 C-232.55945026647834,33.85 -234.57799273954916,34.36 -236.80432634955375,34.36 C-239.8618245072934,34.36 -242.26626480609838,33.385 -244.01764724596867,31.435 V42.73 H-250.963808109183 V9.79 H-244.3293339513693 V12.58 C-242.60763595963243,10.48 -240.09930009236058,9.43 -236.80432634955375,9.43 zM-238.00654649895625,28.6 C-236.22547961095256,28.6 -234.77094165241624,28 -233.64293262334724,26.8 C-232.48523914614483,25.57 -231.90639240754368,23.935 -231.90639240754368,21.895 C-231.90639240754368,19.855 -232.48523914614483,18.235 -233.64293262334724,17.035 C-234.77094165241624,15.805 -236.22547961095256,15.19 -238.00654649895625,15.19 C-239.78761338695992,15.19 -241.25699356956298,15.805 -242.41468704676532,17.035 C-243.54269607583433,18.235 -244.10670059036883,19.855 -244.10670059036883,21.895 C-244.10670059036883,23.935 -243.54269607583433,25.57 -242.41468704676532,26.8 C-241.25699356956298,28 -239.78761338695992,28.6 -238.00654649895625,28.6 zM-213.58673419017964,12.985 C-212.7555696424446,11.815 -211.64240283744232,10.93 -210.24723377517276,10.33 C-208.8223802647698,9.73 -207.18973561743312,9.43 -205.3492998331626,9.43 V15.91 C-206.12109548463087,15.85 -206.6405733269653,15.82 -206.90773336016585,15.82 C-208.89659138510328,15.82 -210.45502491210652,16.39 -211.5830339411755,17.53 C-212.71104297024448,18.64 -213.27504748477898,20.32 -213.27504748477898,22.57 V34 H-220.2212083479933 V9.79 H-213.58673419017964 V12.985 zM-177.97083857893057,21.985 C-177.97083857893057,22.075 -178.01536525113065,22.705 -178.10441859553083,23.875 H-196.22697207728913 C-195.90044314782182,25.375 -195.12864749635355,26.56 -193.91158512288436,27.43 C-192.69452274941517,28.3 -191.1806158946121,28.735 -189.3696666621541,28.735 C-188.12291984055153,28.735 -187.02459525961592,28.555 -186.0746929193473,28.195 C-185.0951061309453,27.805 -184.18973046287675,27.205 -183.3585659151417,26.395 L-179.66285212253408,30.445 C-181.9188701806721,33.055 -185.21384392347886,34.36 -189.54777335095451,34.36 C-192.24925602741425,34.36 -194.63885410215252,33.835 -196.71676547149013,32.785 C-198.79467684082778,31.705 -200.39763704003107,30.22 -201.52564606910008,28.33 C-202.65365509816908,26.44 -203.21765961270359,24.295 -203.21765961270359,21.895 C-203.21765961270359,19.525 -202.66849732223577,17.395 -201.57017274130018,15.505 C-200.44216371223115,13.585 -198.91341463336136,12.1 -196.9839255046907,11.05 C-195.02475192788668,9.97 -192.84294499008217,9.43 -190.4385046912772,9.43 C-188.09323539241814,9.43 -185.97079735088042,9.94 -184.07099267034317,10.96 C-182.17118798980593,11.98 -180.68696558313616,13.45 -179.618325450334,15.37 C-178.5200008693984,17.26 -177.97083857893057,19.465 -177.97083857893057,21.985 zM-190.39397801907708,14.74 C-191.96725377014704,14.74 -193.28821171208307,15.19 -194.35685184488528,16.09 C-195.4254919776875,16.99 -196.07854983662216,18.22 -196.31602542168932,19.78 H-184.51625939234407 C-184.75373497741126,18.25 -185.40679283634591,17.035 -186.47543296914816,16.135 C-187.54407310195032,15.205 -188.85018881981972,14.74 -190.39397801907708,14.74 zM-158.7857797503177,9.43 C-155.8173349369782,9.43 -153.42773686223993,10.33 -151.6169855261029,12.13 C-149.7765497418324,13.93 -148.85633184969717,16.6 -148.85633184969717,20.14 V34 H-155.8024927129115 V21.22 C-155.8024927129115,19.3 -156.21807498677902,17.875 -157.04923953451407,16.945 C-157.88040408224913,15.985 -159.0826242316516,15.505 -160.6558999827215,15.505 C-162.4072824225918,15.505 -163.80245148486134,16.06 -164.84140716953016,17.17 C-165.88036285419898,18.25 -166.39984069653337,19.87 -166.39984069653337,22.03 V34 H-173.34600155974772 V9.79 H-166.71152740193403 V12.625 C-165.7913095097988,11.605 -164.64845825666308,10.825 -163.28297364252697,10.285 C-161.91748902839078,9.715 -160.41842439765435,9.43 -158.7857797503177,9.43 zM-117.89941037298438,0.6099980000000008 V34 H-124.53388453079806 V31.21 C-126.25558252253497,33.31 -128.74907616574012,34.36 -132.0143654604135,34.36 C-134.27038351855148,34.36 -136.31861043975576,33.85 -138.15904622402618,32.83 C-139.96979756016327,31.81 -141.39465107056623,30.355 -142.433606755235,28.465 C-143.47256243990387,26.575 -143.99204028223824,24.385 -143.99204028223824,21.895 C-143.99204028223824,19.405 -143.47256243990387,17.215 -142.433606755235,15.325 C-141.39465107056623,13.435 -139.96979756016327,11.98 -138.15904622402618,10.96 C-136.31861043975576,9.94 -134.27038351855148,9.43 -132.0143654604135,9.43 C-128.95686730267386,9.43 -126.56726922793558,10.405 -124.84557123619875,12.355 V0.6099980000000008 H-117.89941037298438 zM-130.81214531101102,28.6 C-129.06076287114075,28.6 -127.60622491260446,28 -126.44853143540202,26.8 C-125.29083795819965,25.57 -124.71199121959843,23.935 -124.71199121959843,21.895 C-124.71199121959843,19.855 -125.29083795819965,18.235 -126.44853143540202,17.035 C-127.60622491260446,15.805 -129.06076287114075,15.19 -130.81214531101102,15.19 C-132.5932121990147,15.19 -134.06259238161772,15.805 -135.22028585882018,17.035 C-136.37797933602252,18.235 -136.95682607462368,19.855 -136.95682607462368,21.895 C-136.95682607462368,23.935 -136.37797933602252,25.57 -135.22028585882018,26.8 C-134.06259238161772,28 -132.5932121990147,28.6 -130.81214531101102,28.6 zM-88.00420265784268,21.985 C-88.00420265784268,22.075 -88.04872933004278,22.705 -88.13778267444293,23.875 H-106.2601382598804 C-105.93360933041303,25.375 -105.16181367894478,26.56 -103.94475130547562,27.43 C-102.72768893200642,28.3 -101.21378207720326,28.735 -99.40303074106625,28.735 C-98.15628391946363,28.735 -97.05795933852802,28.555 -96.1080569982594,28.195 C-95.12847020985741,27.805 -94.22309454178887,27.205 -93.39192999405383,26.395 L-89.69621620144618,30.445 C-91.95223425958415,33.055 -95.24720800239098,34.36 -99.58113742986662,34.36 C-102.28242221000549,34.36 -104.67202028474377,33.835 -106.7499316540814,32.785 C-108.82784302341899,31.705 -110.43080322262233,30.22 -111.55881225169131,28.33 C-112.6868212807603,26.44 -113.2508257952948,24.295 -113.2508257952948,21.895 C-113.2508257952948,19.525 -112.70166350482697,17.395 -111.60333892389137,15.505 C-110.4753298948224,13.585 -108.9465808159526,12.1 -107.01709168728192,11.05 C-105.0579181104779,9.97 -102.87611117267336,9.43 -100.47167087386839,9.43 C-98.12659947133025,9.43 -96.00416142979255,9.94 -94.10435674925532,10.96 C-92.204552068718,11.98 -90.72032966204827,13.45 -89.65168952924614,15.37 C-88.55336494831052,17.26 -88.00420265784268,19.465 -88.00420265784268,21.985 zM-100.42714420166836,14.74 C-102.00041995273827,14.74 -103.32137789467431,15.19 -104.39001802747651,16.09 C-105.45865816027872,16.99 -106.11171601921339,18.22 -106.34919160428056,19.78 H-94.5496234712562 C-94.78709905632334,18.25 -95.44015691525803,17.035 -96.50879704806026,16.135 C-97.57743718086243,15.205 -98.88355289873178,14.74 -100.42714420166836,14.74 zM-46.368795705943405,0.6099980000000008 V34 H-53.00326986375712 V31.21 C-54.72496785549401,33.31 -57.218461498699135,34.36 -60.483750793372536,34.36 C-62.73976885151056,34.36 -64.7879957727148,33.85 -66.62843155698526,32.83 C-68.4391828931223,31.81 -69.86403640352528,30.355 -70.90299208819411,28.465 C-71.94194777286287,26.575 -72.4614256151973,24.385 -72.4614256151973,21.895 C-72.4614256151973,19.405 -71.94194777286287,17.215 -70.90299208819411,15.325 C-69.86403640352528,13.435 -68.4391828931223,11.98 -66.62843155698526,10.96 C-64.7879957727148,9.94 -62.73976885151056,9.43 -60.483750793372536,9.43 C-57.4262526356329,9.43 -55.03665456089468,10.405 -53.31495656915777,12.355 V0.6099980000000008 H-46.368795705943405 zM-59.281530643970065,28.6 C-57.53014820409981,28.6 -56.07561024556345,28 -54.917916768361046,26.8 C-53.76022329115869,25.57 -53.18137655255749,23.935 -53.18137655255749,21.895 C-53.18137655255749,19.855 -53.76022329115869,18.235 -54.917916768361046,17.035 C-56.07561024556345,15.805 -57.53014820409981,15.19 -59.281530643970065,15.19 C-61.06259753197377,15.19 -62.531977714576826,15.805 -63.689671191779176,17.035 C-64.84736466898153,18.235 -65.4262114075828,19.855 -65.4262114075828,21.895 C-65.4262114075828,23.935 -64.84736466898153,25.57 -63.689671191779176,26.8 C-62.531977714576826,28 -61.06259753197377,28.6 -59.281530643970065,28.6 zM-16.474577472406207,21.985 C-16.474577472406207,22.075 -16.519104144606246,22.705 -16.60815748900643,23.875 H-34.73051307444384 C-34.40398414497649,25.375 -33.63218849350828,26.56 -32.415126120039076,27.43 C-31.198063746569883,28.3 -29.684156891766794,28.735 -27.873405555629688,28.735 C-26.626658734027096,28.735 -25.528334153091592,28.555 -24.578431812822892,28.195 C-23.598845024420854,27.805 -22.693469356352363,27.205 -21.862304808617242,26.395 L-18.16659101600967,30.445 C-20.42260907414764,33.055 -23.717582816954437,34.36 -28.05151224443006,34.36 C-30.752797024568956,34.36 -33.142395099307265,33.835 -35.220306468644864,32.785 C-37.29821783798251,31.705 -38.90117803718582,30.22 -40.029187066254806,28.33 C-41.15719609532379,26.44 -41.721200609858265,24.295 -41.721200609858265,21.895 C-41.721200609858265,19.525 -41.17203831939046,17.395 -40.0737137384549,15.505 C-38.94570470938586,13.585 -37.4169556305161,12.1 -35.48746650184542,11.05 C-33.5282929250414,9.97 -31.346485987236914,9.43 -28.94204568843191,9.43 C-26.596974285893705,9.43 -24.474536244355956,9.94 -22.57473156381878,10.96 C-20.674926883281497,11.98 -19.190704476611742,13.45 -18.122064343809576,15.37 C-17.023739762874015,17.26 -16.474577472406207,19.465 -16.474577472406207,21.985 zM-28.897519016231822,14.74 C-30.4707947673017,14.74 -31.791752709237784,15.19 -32.86039284204001,16.09 C-33.92903297484217,16.99 -34.58209083377687,18.22 -34.819566418844026,19.78 H-23.019998285819653 C-23.25747387088687,18.25 -23.910531729821503,17.035 -24.979171862623726,16.135 C-26.047811995425892,15.205 -27.353927713295278,14.74 -28.897519016231822,14.74 zM0.7602131138427151,0.6099980000000008 H7.7063739770571065 V34 H0.7602131138427151 V0.6099980000000008 zM23.815134497445847,9.43 C27.52569051412018,9.43 30.37539753492611,10.33 32.364255559863516,12.13 C34.353113584800994,13.9 35.347542597269666,16.585 35.347542597269666,20.185 V34 H28.846648456056258 V30.985 C27.540532738186876,33.235 25.10640799124854,34.36 21.54427421524118,34.36 C19.703838430970745,34.36 18.10087823176741,34.045 16.735393617631296,33.415 C15.399593451628458,32.785 14.375479991026328,31.915 13.6630532358249,30.805 C12.95062648062348,29.695 12.594413103022738,28.435 12.594413103022738,27.025 C12.594413103022738,24.775 13.425577650757742,23.005 15.087906746227866,21.715 C16.77992028983133,20.425 19.3773095015034,19.78 22.88007438124396,19.78 H28.401381734055388 C28.401381734055388,18.25 27.94127278798771,17.08 27.021054895852462,16.27 C26.100837003717213,15.43 24.720510165514398,15.01 22.88007438124396,15.01 C21.603643111507974,15.01 20.34205406583868,15.22 19.095307244236146,15.64 C17.878244870766945,16.03 16.839289186098174,16.57 15.978440190229719,17.26 L13.484946547024535,12.355 C14.791062264893974,11.425 16.34949579189716,10.705 18.1602471280342,10.195 C20.000682912304693,9.685 21.88564536877517,9.43 23.815134497445847,9.43 zM23.28081443104474,29.635 C24.46819235638054,29.635 25.52199026511607,29.365 26.44220815725131,28.825 C27.36242604938651,28.255 28.015483908321137,27.43 28.401381734055388,26.35 V23.875 H23.637027808645477 C20.787320787839665,23.875 19.3624672774367,24.82 19.3624672774367,26.71 C19.3624672774367,27.61 19.703838430970745,28.33 20.386580738038774,28.87 C21.099007493240258,29.38 22.0637520575756,29.635 23.28081443104474,29.635 zM84.92254994324749,9.43 C87.9206792047204,9.43 90.29543505539195,10.33 92.04681749526225,12.13 C93.82788438326591,13.9 94.71841782726776,16.57 94.71841782726776,20.14 V34 H87.77225696405335 V21.22 C87.77225696405335,19.3 87.3715169142526,17.875 86.57003681465086,16.945 C85.79824116318265,15.985 84.68507435818039,15.505 83.23053639964404,15.505 C81.59789175230736,15.505 80.30661825850466,16.045 79.35671591823596,17.125 C78.40681357796738,18.175 77.93186240783312,19.75 77.93186240783312,21.85 V34 H70.98570154461872 V21.22 C70.98570154461872,17.41 69.47179468981564,15.505 66.44398098020945,15.505 C64.84102078100611,15.505 63.56458951127013,16.045 62.61468717100148,17.125 C61.6647848307329,18.175 61.18983366059858,19.75 61.18983366059858,21.85 V34 H54.24367279738424 V9.79 H60.87814695519792 V12.58 C61.768680399199724,11.56 62.85216275606864,10.78 64.12859402580457,10.24 C65.4347097436739,9.7 66.85956325407692,9.43 68.40315455701341,9.43 C70.095168100617,9.43 71.62391717948672,9.775 72.98940179362296,10.465 C74.35488640775907,11.125 75.45321098869464,12.1 76.28437553642975,13.39 C77.26396232483174,12.13 78.49586692236763,11.155 79.98008932903733,10.465 C81.49399618384048,9.775 83.1414830552439,9.43 84.92254994324749,9.43 zM110.60751343146946,9.43 C114.31806944814373,9.43 117.16777646894965,10.33 119.15663449388707,12.13 C121.14549251882448,13.9 122.13992153129321,16.585 122.13992153129321,20.185 V34 H115.63902739007982 V30.985 C114.33291167221043,33.235 111.89878692527213,34.36 108.33665314926472,34.36 C106.49621736499422,34.36 104.89325716579101,34.045 103.52777255165478,33.415 C102.19197238565206,32.785 101.16785892504993,31.915 100.45543216984855,30.805 C99.74300541464702,29.695 99.38679203704629,28.435 99.38679203704629,27.025 C99.38679203704629,24.775 100.21795658478135,23.005 101.88028568025142,21.715 C103.57229922385487,20.425 106.16968843552695,19.78 109.6724533152675,19.78 H115.19376066807888 C115.19376066807888,18.25 114.7336517220113,17.08 113.81343382987612,16.27 C112.89321593774086,15.43 111.512889099538,15.01 109.6724533152675,15.01 C108.39602204553152,15.01 107.13443299986228,15.22 105.8876861782597,15.64 C104.6706238047905,16.03 103.63166812012172,16.57 102.77081912425326,17.26 L100.27732548104812,12.355 C101.58344119891751,11.425 103.1418747259207,10.705 104.95262606205775,10.195 C106.79306184632824,9.685 108.67802430279878,9.43 110.60751343146946,9.43 zM110.07319336506828,29.635 C111.26057129040414,29.635 112.31436919913968,29.365 113.23458709127486,28.825 C114.15480498341012,28.255 114.80786284234475,27.43 115.19376066807888,26.35 V23.875 H110.42940674266903 C107.57969972186316,23.875 106.15484621146025,24.82 106.15484621146025,26.71 C106.15484621146025,27.61 106.49621736499422,28.33 107.17895967206232,28.87 C107.89138642726381,29.38 108.85613099159914,29.635 110.07319336506828,29.635 zM142.98631997377183,9.43 C145.9547647871113,9.43 148.34436286184956,10.33 150.15511419798665,12.13 C151.99554998225702,13.93 152.91576787439226,16.6 152.91576787439226,20.14 V34 H145.96960701117797 V21.22 C145.96960701117797,19.3 145.55402473731044,17.875 144.72286018957539,16.945 C143.8916956418403,15.985 142.68947549243788,15.505 141.11619974136795,15.505 C139.36481730149768,15.505 137.96964823922812,16.06 136.9306925545593,17.17 C135.8917368698905,18.25 135.3722590275561,19.87 135.3722590275561,22.03 V34 H128.4260981643417 V9.79 H135.06057232215545 V12.625 C135.98079021429072,11.605 137.12364146742635,10.825 138.48912608156255,10.285 C139.8546106956987,9.715 141.3536753264351,9.43 142.98631997377183,9.43 zM170.87189055028264,34.36 C168.3487124589442,34.36 166.0778521767395,33.835 164.05930970366865,32.785 C162.07045167873116,31.705 160.512018151728,30.22 159.38400912265905,28.33 C158.25600009358996,26.44 157.69199557905552,24.295 157.69199557905552,21.895 C157.69199557905552,19.495 158.25600009358996,17.35 159.38400912265905,15.46 C160.512018151728,13.57 162.07045167873116,12.1 164.05930970366865,11.05 C166.0778521767395,9.97 168.3487124589442,9.43 170.87189055028264,9.43 C173.3950686416212,9.43 175.65108669975925,9.97 177.6399447246966,11.05 C179.62880274963408,12.1 181.18723627663726,13.57 182.3152453057063,15.46 C183.4432543347753,17.35 184.0072588493098,19.495 184.0072588493098,21.895 C184.0072588493098,24.295 183.4432543347753,26.44 182.3152453057063,28.33 C181.18723627663726,30.22 179.62880274963408,31.705 177.6399447246966,32.785 C175.65108669975925,33.835 173.3950686416212,34.36 170.87189055028264,34.36 zM170.87189055028264,28.6 C172.65295743828636,28.6 174.10749539682263,28 175.23550442589166,26.8 C176.39319790309406,25.57 176.97204464169528,23.935 176.97204464169528,21.895 C176.97204464169528,19.855 176.39319790309406,18.235 175.23550442589166,17.035 C174.10749539682263,15.805 172.65295743828636,15.19 170.87189055028264,15.19 C169.09082366227898,15.19 167.62144347967592,15.805 166.46375000247363,17.035 C165.30605652527117,18.235 164.72720978666996,19.855 164.72720978666996,21.895 C164.72720978666996,23.935 165.30605652527117,25.57 166.46375000247363,26.8 C167.62144347967592,28 169.09082366227898,28.6 170.87189055028264,28.6 zM225.6604764700891,0.6099980000000008 V34 H219.02600231227538 V31.21 C217.30430432053853,33.31 214.81081067733336,34.36 211.54552138266,34.36 C209.28950332452197,34.36 207.24127640331778,33.85 205.40084061904727,32.83 C203.59008928291027,31.81 202.1652357725073,30.355 201.12628008783844,28.465 C200.08732440316967,26.575 199.5678465608352,24.385 199.5678465608352,21.895 C199.5678465608352,19.405 200.08732440316967,17.215 201.12628008783844,15.325 C202.1652357725073,13.435 203.59008928291027,11.98 205.40084061904727,10.96 C207.24127640331778,9.94 209.28950332452197,9.43 211.54552138266,9.43 C214.6030195403996,9.43 216.99261761513787,10.405 218.7143156068748,12.355 V0.6099980000000008 H225.6604764700891 zM212.74774153206243,28.6 C214.4991239719327,28.6 215.9536619304691,28 217.11135540767148,26.8 C218.26904888487385,25.57 218.8478956234751,23.935 218.8478956234751,21.895 C218.8478956234751,19.855 218.26904888487385,18.235 217.11135540767148,17.035 C215.9536619304691,15.805 214.4991239719327,15.19 212.74774153206243,15.19 C210.96667464405874,15.19 209.49729446145574,15.805 208.33960098425334,17.035 C207.181907507051,18.235 206.60306076844978,19.855 206.60306076844978,21.895 C206.60306076844978,23.935 207.181907507051,25.57 208.33960098425334,26.8 C209.49729446145574,28 210.96667464405874,28.6 212.74774153206243,28.6 zM255.55568418523075,21.985 C255.55568418523075,22.075 255.51115751303075,22.705 255.42210416863054,23.875 H237.29974858319315 C237.6262775126605,25.375 238.39807316412865,26.56 239.61513553759795,27.43 C240.83219791106706,28.3 242.34610476587008,28.735 244.1568561020073,28.735 C245.4036029236099,28.735 246.5019275045454,28.555 247.45182984481403,28.195 C248.43141663321606,27.805 249.33679230128456,27.205 250.16795684901973,26.395 L253.86367064162727,30.445 C251.60765258348923,33.055 248.3126788406825,34.36 243.97874941320703,34.36 C241.27746463306795,34.36 238.88786655832973,33.835 236.80995518899218,32.785 C234.7320438196545,31.705 233.12908362045118,30.22 232.00107459138218,28.33 C230.87306556231317,26.44 230.30906104777867,24.295 230.30906104777867,21.895 C230.30906104777867,19.525 230.8582233382464,17.395 231.95654791918201,15.505 C233.08455694825102,13.585 234.61330602712093,12.1 236.54279515579162,11.05 C238.50196873259569,9.97 240.68377567040008,9.43 243.08821596920495,9.43 C245.4332873717433,9.43 247.55572541328098,9.94 249.45553009381814,10.96 C251.35533477435544,11.98 252.83955718102516,13.45 253.90819731382743,15.37 C255.006521894763,17.26 255.55568418523075,19.465 255.55568418523075,21.985 zM243.13274264140523,14.74 C241.55946689033516,14.74 240.23850894839913,15.19 239.16986881559703,16.09 C238.1012286827948,16.99 237.44817082385998,18.22 237.21069523879297,19.78 H249.01026337181722 C248.77278778675006,18.25 248.11972992781548,17.035 247.05108979501324,16.135 C245.98244966221102,15.205 244.67633394434165,14.74 243.13274264140523,14.74 zM-285.0545167753382,55.61 H-278.1083559121239 V89 H-285.0545167753382 V55.61 zM-260.2628572796106,89.36 C-262.78603537094915,89.36 -265.0568956531539,88.835 -267.0754381262247,87.785 C-269.06429615116207,86.705 -270.62272967816534,85.22 -271.75073870723435,83.33 C-272.8787477363033,81.44 -273.4427522508378,79.295 -273.4427522508378,76.895 C-273.4427522508378,74.495 -272.8787477363033,72.35 -271.75073870723435,70.46 C-270.62272967816534,68.57 -269.06429615116207,67.1 -267.0754381262247,66.05 C-265.0568956531539,64.97 -262.78603537094915,64.43 -260.2628572796106,64.43 C-257.7396791882721,64.43 -255.48366113013407,64.97 -253.49480310519667,66.05 C-251.50594508025924,67.1 -249.94751155325602,68.57 -248.819502524187,70.46 C-247.691493495118,72.35 -247.1274889805835,74.495 -247.1274889805835,76.895 C-247.1274889805835,79.295 -247.691493495118,81.44 -248.819502524187,83.33 C-249.94751155325602,85.22 -251.50594508025924,86.705 -253.49480310519667,87.785 C-255.48366113013407,88.835 -257.7396791882721,89.36 -260.2628572796106,89.36 zM-260.2628572796106,83.6 C-258.481790391607,83.6 -257.0272524330706,83 -255.8992434040016,81.8 C-254.74154992679925,80.57 -254.16270318819807,78.935 -254.16270318819807,76.895 C-254.16270318819807,74.855 -254.74154992679925,73.235 -255.8992434040016,72.035 C-257.0272524330706,70.805 -258.481790391607,70.19 -260.2628572796106,70.19 C-262.0439241676143,70.19 -263.5133043502173,70.805 -264.67099782741974,72.035 C-265.8286913046221,73.235 -266.40753804322327,74.855 -266.40753804322327,76.895 C-266.40753804322327,78.935 -265.8286913046221,80.57 -264.67099782741974,81.8 C-263.5133043502173,83 -262.0439241676143,83.6 -260.2628572796106,83.6 zM-234.42521677982265,89.36 C-236.41407480476008,89.36 -238.35840615749743,89.12 -240.2582108380347,88.64 C-242.15801551857194,88.13 -243.67192237337508,87.5 -244.79993140244406,86.75 L-242.4845444480393,81.71 C-241.41590431523704,82.4 -240.1246308214344,82.97 -238.6107239666313,83.42 C-237.09681711182816,83.84 -235.61259470515844,84.05 -234.1580567466221,84.05 C-231.21929638141603,84.05 -229.749916198813,83.315 -229.749916198813,81.845 C-229.749916198813,81.155 -230.1506562486138,80.66 -230.95213634821548,80.36 C-231.75361644781714,80.06 -232.985521045353,79.805 -234.6478501408231,79.595 C-236.60702371762713,79.295 -238.22482614089714,78.95 -239.50125741063312,78.56 C-240.7776886803691,78.17 -241.8908554853714,77.48 -242.84075782564003,76.49 C-243.76097571777524,75.5 -244.22108466384284,74.09 -244.22108466384284,72.26 C-244.22108466384284,70.73 -243.79066016590863,69.38 -242.92981117004018,68.21 C-242.03927772603836,67.01 -240.76284645630238,66.08 -239.1005173608323,65.42 C-237.4085038172288,64.76 -235.41964579229136,64.43 -233.13394328601998,64.43 C-231.4419297424165,64.43 -229.7647584228797,64.625 -228.1024293274096,65.015 C-226.4104157838061,65.375 -225.01524672153656,65.885 -223.91692214060095,66.545 L-226.23230909500575,71.54 C-228.33990491247675,70.34 -230.64044964281481,69.74 -233.13394328601998,69.74 C-234.6181656926897,69.74 -235.73133249769197,69.95 -236.47344370102687,70.37 C-237.2155549043617,70.79 -237.58661050602916,71.33 -237.58661050602916,71.99 C-237.58661050602916,72.74 -237.18587045622834,73.265 -236.38439035662668,73.565 C-235.58291025702502,73.865 -234.30647898728907,74.15 -232.55509654741877,74.42 C-230.59592297061474,74.75 -228.9929627714114,75.11 -227.74621594980886,75.5 C-226.4994691282063,75.86 -225.4159867713374,76.535 -224.49576887920216,77.525 C-223.57555098706692,78.515 -223.11544204099928,79.895 -223.11544204099928,81.665 C-223.11544204099928,83.165 -223.5607087630002,84.5 -224.45124220700205,85.67 C-225.34177565100387,86.84 -226.64789136887327,87.755 -228.36958936061018,88.415 C-230.06160290421366,89.045 -232.08014537728448,89.36 -234.42521677982265,89.36 zM-175.54067175840999,64.43 C-172.54254249693713,64.43 -170.16778664626557,65.33 -168.41640420639533,67.13 C-166.6353373183916,68.9 -165.7448038743898,71.57 -165.7448038743898,75.14 V89 H-172.6909647376041 V76.22 C-172.6909647376041,74.3 -173.09170478740492,72.875 -173.8931848870066,71.945 C-174.66498053847488,70.985 -175.77814734347717,70.505 -177.2326853020135,70.505 C-178.8653299493502,70.505 -180.15660344315285,71.045 -181.10650578342148,72.125 C-182.05640812369012,73.175 -182.53135929382444,74.75 -182.53135929382444,76.85 V89 H-189.47752015703878 V76.22 C-189.47752015703878,72.41 -190.99152596000235,70.505 -194.01933966960857,70.505 C-195.6222998688119,70.505 -196.89873113854787,71.045 -197.84863347881648,72.125 C-198.79853581908512,73.175 -199.27348698921944,74.75 -199.27348698921944,76.85 V89 H-206.21964785243378 V64.79 H-199.58517369462004 V67.58 C-198.69464025061825,66.56 -197.61115789374932,65.78 -196.33472662401337,65.24 C-195.028610906144,64.7 -193.60375739574104,64.43 -192.06016609280454,64.43 C-190.36815254920103,64.43 -188.8393045221708,64.775 -187.4738199080346,65.465 C-186.10833529389848,66.125 -185.0100107129629,67.1 -184.17884616522784,68.39 C-183.1992593768258,67.13 -181.96735477928996,66.155 -180.48313237262022,65.465 C-178.9692255178171,64.775 -177.32173864641368,64.43 -175.54067175840999,64.43 zM-135.79220622619016,76.985 C-135.79220622619016,77.075 -135.83673289839032,77.705 -135.92578624279048,78.875 H-154.0481418282279 C-153.72161289876055,80.375 -152.94981724729226,81.56 -151.7327548738231,82.43 C-150.51569250035394,83.3 -149.0017856455508,83.735 -147.19103430941374,83.735 C-145.94428748781115,83.735 -144.84596290687554,83.555 -143.89606056660693,83.195 C-142.9164737782049,82.805 -142.01109811013634,82.205 -141.17993356240132,81.395 L-137.4842197697937,85.445 C-139.7402378279317,88.055 -143.03521157073843,89.36 -147.3691409982141,89.36 C-150.07042577835298,89.36 -152.4600238530913,88.835 -154.53793522242887,87.785 C-156.61584659176654,86.705 -158.2188067909698,85.22 -159.3468158200388,83.33 C-160.4748248491078,81.44 -161.0388293636423,79.295 -161.0388293636423,76.895 C-161.0388293636423,74.525 -160.48966707317453,72.395 -159.3913424922389,70.505 C-158.26333346316994,68.585 -156.7345843843001,67.1 -154.80509525562942,66.05 C-152.84592167882542,64.97 -150.66411474102088,64.43 -148.25967444221595,64.43 C-145.91460303967776,64.43 -143.79216499814007,64.94 -141.8923603176028,65.96 C-139.99255563706555,66.98 -138.5083332303958,68.45 -137.43969309759362,70.37 C-136.341368516658,72.26 -135.79220622619016,74.465 -135.79220622619016,76.985 zM-148.21514777001585,69.74 C-149.78842352108575,69.74 -151.1093814630218,70.19 -152.17802159582402,71.09 C-153.24666172862618,71.99 -153.89971958756095,73.22 -154.13719517262805,74.78 H-142.33762703960372 C-142.57510262467082,73.25 -143.2281604836055,72.035 -144.29680061640778,71.135 C-145.36544074921,70.205 -146.67155646707937,69.74 -148.21514777001585,69.74 zM-132.94942557661543,98.09 C-135.3835503235538,98.09 -137.23882833189094,97.64 -138.51525960162692,96.74 L-136.64513936922307,91.655 C-135.8436592696214,92.225 -134.86407248121938,92.51 -133.70637900401698,92.51 C-132.8158455600152,92.51 -132.11826102888037,92.21 -131.61362541061268,91.61 C-131.10898979234497,91.04 -130.85667198321119,90.17 -130.85667198321119,89 V64.79 H-123.9105111199968 V88.955 C-123.9105111199968,91.775 -124.71199121959843,93.995 -126.31495141880177,95.615 C-127.8882271698717,97.265 -130.09971855580955,98.09 -132.94942557661543,98.09 zM-127.38359155160394,61.415 C-128.66002282133994,61.415 -129.69897850600873,61.04 -130.50045860561045,60.29 C-131.30193870521202,59.54 -131.7026787550129,58.61 -131.7026787550129,57.5 C-131.7026787550129,56.39 -131.30193870521202,55.46 -130.50045860561045,54.71 C-129.69897850600873,53.96 -128.66002282133994,53.585 -127.38359155160394,53.585 C-126.10716028186795,53.585 -125.06820459719917,53.945 -124.26672449759754,54.665 C-123.46524439799587,55.385 -123.06450434819507,56.285 -123.06450434819507,57.365 C-123.06450434819507,58.535 -123.46524439799587,59.51 -124.26672449759754,60.29 C-125.06820459719917,61.04 -126.10716028186795,61.415 -127.38359155160394,61.415 zM-106.11567394563119,89.36 C-108.63885203696972,89.36 -110.90971231917445,88.835 -112.92825479224521,87.785 C-114.91711281718268,86.705 -116.47554634418593,85.22 -117.6035553732549,83.33 C-118.7315644023239,81.44 -119.29556891685837,79.295 -119.29556891685837,76.895 C-119.29556891685837,74.495 -118.7315644023239,72.35 -117.6035553732549,70.46 C-116.47554634418593,68.57 -114.91711281718268,67.1 -112.92825479224521,66.05 C-110.90971231917445,64.97 -108.63885203696972,64.43 -106.11567394563119,64.43 C-103.59249585429268,64.43 -101.33647779615463,64.97 -99.34761977121721,66.05 C-97.35876174627975,67.1 -95.8003282192766,68.57 -94.6723191902076,70.46 C-93.54431016113857,72.35 -92.98030564660407,74.495 -92.98030564660407,76.895 C-92.98030564660407,79.295 -93.54431016113857,81.44 -94.6723191902076,83.33 C-95.8003282192766,85.22 -97.35876174627975,86.705 -99.34761977121721,87.785 C-101.33647779615463,88.835 -103.59249585429268,89.36 -106.11567394563119,89.36 zM-106.11567394563119,83.6 C-104.33460705762752,83.6 -102.88006909909116,83 -101.75206007002218,81.8 C-100.59436659281975,80.57 -100.01551985421861,78.935 -100.01551985421861,76.895 C-100.01551985421861,74.855 -100.59436659281975,73.235 -101.75206007002218,72.035 C-102.88006909909116,70.805 -104.33460705762752,70.19 -106.11567394563119,70.19 C-107.89674083363485,70.19 -109.36612101623788,70.805 -110.52381449344023,72.035 C-111.68150797064267,73.235 -112.26035470924384,74.855 -112.26035470924384,76.895 C-112.26035470924384,78.935 -111.68150797064267,80.57 -110.52381449344023,81.8 C-109.36612101623788,83 -107.89674083363485,83.6 -106.11567394563119,83.6 zM-81.70219431912304,67.985 C-80.87102977138798,66.815 -79.75786296638569,65.93 -78.36269390411616,65.33 C-76.93784039371319,64.73 -75.30519574637651,64.43 -73.46475996210604,64.43 V70.91 C-74.23655561357425,70.85 -74.7560334559087,70.82 -75.02319348910926,70.82 C-77.01205151404668,70.82 -78.57048504104989,71.39 -79.6984940701189,72.53 C-80.82650309918789,73.64 -81.39050761372236,75.32 -81.39050761372236,77.57 V89 H-88.3366684769367 V64.79 H-81.70219431912304 V67.985 zM-46.08679344867618,76.985 C-46.08679344867618,77.075 -46.131320120876296,77.705 -46.22037346527648,78.875 H-64.34272905071387 C-64.01620012124656,80.375 -63.24440446977825,81.56 -62.027342096309084,82.43 C-60.81027972283988,83.3 -59.29637286803679,83.735 -57.485621531899724,83.735 C-56.238874710297154,83.735 -55.140550129361564,83.555 -54.19064778909295,83.195 C-53.21106100069092,82.805 -52.30568533262234,82.205 -51.474520784887304,81.395 L-47.77880699227964,85.445 C-50.034825050417666,88.055 -53.32979879322444,89.36 -57.663728220700094,89.36 C-60.365013000838985,89.36 -62.75461107557723,88.835 -64.83252244491487,87.785 C-66.91043381425251,86.705 -68.51339401345578,85.22 -69.6414030425248,83.33 C-70.76941207159379,81.44 -71.33341658612827,79.295 -71.33341658612827,76.895 C-71.33341658612827,74.525 -70.78425429566046,72.395 -69.68592971472489,70.505 C-68.55792068565586,68.585 -67.02917160678606,67.1 -65.09968247811543,66.05 C-63.1405089013114,64.97 -60.95870196350689,64.43 -58.55426166470194,64.43 C-56.20919026216373,64.43 -54.08675222062601,64.94 -52.18694754008875,65.96 C-50.28714285955155,66.98 -48.80292045288183,68.45 -47.73428032007958,70.37 C-46.63595573914399,72.26 -46.08679344867618,74.465 -46.08679344867618,76.985 zM-58.509734992501826,69.74 C-60.083010743571734,69.74 -61.403968685507785,70.19 -62.47260881831001,71.09 C-63.54124895111217,71.99 -64.19430681004687,73.22 -64.43178239511406,74.78 H-52.632214262089704 C-52.86968984715684,73.25 -53.522747706091536,72.035 -54.59138783889372,71.135 C-55.660027971695925,70.205 -56.966143689565335,69.74 -58.509734992501826,69.74 zM-33.402628761276674,89.36 C-35.39148678621409,89.36 -37.335818138951446,89.12 -39.23562281948869,88.64 C-41.135427500025955,88.13 -42.6493343548291,87.5 -43.777343383898085,86.75 L-41.4619564294933,81.71 C-40.39331629669108,82.4 -39.10204280288848,82.97 -37.588135948085295,83.42 C-36.0742290932822,83.84 -34.590006686612426,84.05 -33.13546872807612,84.05 C-30.19670836287001,84.05 -28.72732818026706,83.315 -28.72732818026706,81.845 C-28.72732818026706,81.155 -29.128068230067843,80.66 -29.929548329669565,80.36 C-30.73102842927112,80.06 -31.96293302680707,79.805 -33.625262122277135,79.595 C-35.584435699081155,79.295 -37.20223812235119,78.95 -38.47866939208718,78.56 C-39.755100661823164,78.17 -40.86826746682542,77.48 -41.81816980709404,76.49 C-42.738387699229285,75.5 -43.19849664529691,74.09 -43.19849664529691,72.26 C-43.19849664529691,70.73 -42.76807214736265,69.38 -41.90722315149425,68.21 C-41.01668970749237,67.01 -39.74025843775639,66.08 -38.07792934228629,65.42 C-36.385915798682824,64.76 -34.39705777374541,64.43 -32.11135526747399,64.43 C-30.419341723870527,64.43 -28.742170404333702,64.625 -27.07984130886364,65.015 C-25.387827765260173,65.375 -23.99265870299055,65.885 -22.89433412205493,66.545 L-25.209721076459804,71.54 C-27.317316893930744,70.34 -29.61786162426886,69.74 -32.11135526747399,69.74 C-33.59557767414374,69.74 -34.708744479146006,69.95 -35.45085568248088,70.37 C-36.19296688581576,70.79 -36.56402248748319,71.33 -36.56402248748319,71.99 C-36.56402248748319,72.74 -36.16328243768236,73.265 -35.36180233808069,73.565 C-34.56032223847909,73.865 -33.283890968743094,74.15 -31.532508528872786,74.42 C-29.573334952068766,74.75 -27.970374752865435,75.11 -26.723627931262897,75.5 C-25.476881109660305,75.86 -24.393398752791327,76.535 -23.473180860656193,77.525 C-22.552962968520944,78.515 -22.09285402245332,79.895 -22.09285402245332,81.665 C-22.09285402245332,83.165 -22.538120744454194,84.5 -23.428654188456044,85.67 C-24.319187632457893,86.84 -25.62530335032728,87.755 -27.347001342064136,88.415 C-29.039014885667658,89.045 -31.05755735873852,89.36 -33.402628761276674,89.36 z" fill="#ffffff" id="svg_1" class="selected" fill-opacity="1"/></g></svg>