<svg xmlns="http://www.w3.org/2000/svg" width="265" height="46.30578501974742" fill="none"><rect id="backgroundrect" width="100%" height="100%" x="0" y="0" fill="none" stroke="none" class="" style=""/>

<g class="currentLayer" style=""><title>Layer 1</title><path d="M22.062051161440746,-26.094271693490857 H7.502979333445367 L4.7255564001047565,-19.458726884175675 H-2.7107695181944407 L11.265939436681137,-50.42460266097982 H18.433482490463458 L32.45498858942511,-19.458726884175675 H24.839474094781384 L22.062051161440746,-26.094271693490857 zM19.77739681304756,-31.53541843712929 L14.80491381948611,-43.39092516310572 L9.832430825924632,-31.53541843712929 H19.77739681304756 zM49.46107952582353,-43.6121099900829 C51.700936730130515,-43.6121099900829 53.73174059536883,-43.096012060469505 55.5534911215385,-42.06381620124268 C57.40510641043229,-41.06111165227951 58.85354740255081,-39.6307831044938 59.89881409789403,-37.77283055788555 C60.94408079323729,-35.944369321540925 61.4667141409089,-33.80624932742827 61.4667141409089,-31.35847057554756 C61.4667141409089,-28.910691823666838 60.94408079323729,-26.75782617442237 59.89881409789403,-24.89987362781412 C58.85354740255081,-23.071412391469494 57.40510641043229,-21.64108384368378 55.5534911215385,-20.60888798445698 C53.73174059536883,-19.6061834354938 51.700936730130515,-19.104831161012207 49.46107952582353,-19.104831161012207 C46.38500896524197,-19.104831161012207 43.9659631845904,-20.063298744579956 42.2039421838689,-21.980233911715448 V-10.876755597461406 H35.215587706431165 V-43.25821426691942 H41.890362175265935 V-40.51552241240248 C43.62251841326334,-42.57991413085609 46.1460908634492,-43.6121099900829 49.46107952582353,-43.6121099900829 zM48.251556635497764,-24.767162731627817 C50.04344239894337,-24.767162731627817 51.506815772423884,-25.35698893690028 52.641676755939436,-26.536641347445194 C53.806402502179075,-27.74578506825374 54.38876537529884,-29.353061477621193 54.38876537529884,-31.35847057554756 C54.38876537529884,-33.36387967347391 53.806402502179075,-34.95641042770956 52.641676755939436,-36.136062838254475 C51.506815772423884,-37.34520655906303 50.04344239894337,-37.949778419467286 48.251556635497764,-37.949778419467286 C46.459670872052186,-37.949778419467286 44.981365117209535,-37.34520655906303 43.81663937096997,-36.136062838254475 C42.68177838745444,-34.95641042770956 42.114347895696646,-33.36387967347391 42.114347895696646,-31.35847057554756 C42.114347895696646,-29.353061477621193 42.68177838745444,-27.74578506825374 43.81663937096997,-26.536641347445194 C44.981365117209535,-25.35698893690028 46.459670872052186,-24.767162731627817 48.251556635497764,-24.767162731627817 zM72.81970414126377,-40.11738972384358 C73.65591749753833,-41.267550824124875 74.77584609969183,-42.13754447690175 76.1794899477242,-42.72737068217421 C77.61299855848068,-43.31719688744668 79.25556050830582,-43.6121099900829 81.10717579719962,-43.6121099900829 V-37.241986973140335 C80.33069196637318,-37.30096959366758 79.80805861870154,-37.330460903931204 79.53927575418473,-37.330460903931204 C77.53833665167048,-37.330460903931204 75.97043660865558,-36.77012600892237 74.83557562514005,-35.649456218904696 C73.70071464162456,-34.55827773915064 73.13328414986675,-32.90676436438776 73.13328414986675,-30.69491609461604 V-19.458726884175675 H66.14492967242904 V-43.25821426691942 H72.81970414126377 V-40.11738972384358 zM108.65194420367598,-31.269996644756684 C108.65194420367598,-31.181522713965812 108.60714705958983,-30.56220519842974 108.51755277141756,-29.412044098148435 H90.28491602994062 C90.61342841990563,-27.937478584967288 91.38991225073204,-26.772571829554177 92.61436752241985,-25.917323831909112 C93.83882279410768,-25.06207583426405 95.36192569303638,-24.634451835441517 97.18387531762423,-24.634451835441517 C98.43819535203613,-24.634451835441517 99.54319157282761,-24.811399697023255 100.49886397999855,-25.16529542018673 C101.4844011498936,-25.548682453613825 102.39527641297845,-26.13850865888629 103.23148976925309,-26.93477403600411 L106.94965272840265,-22.953447150415013 C104.67993076137158,-20.3877031574798 101.36494209899728,-19.104831161012207 97.00468674127964,-19.104831161012207 C94.28679423496907,-19.104831161012207 91.88268083567958,-19.620929090625605 89.79214744499308,-20.653124949852415 C87.70161405430655,-21.714812119342845 86.08891686720554,-23.174631977392178 84.95405588369002,-25.032584524000427 C83.81919490017447,-26.890537070608676 83.25176440841669,-28.99916575445771 83.25176440841669,-31.35847057554756 C83.25176440841669,-33.68828408637376 83.80426251881241,-35.782167115091 84.90925873960384,-37.64011966169926 C86.04411972311944,-39.52756351857112 87.5821550034102,-40.98738337662046 89.52336458047627,-42.01957923584726 C91.49443892026632,-43.081266405337686 93.6894989804872,-43.6121099900829 96.10854476113873,-43.6121099900829 C98.46806011476023,-43.6121099900829 100.6033906495329,-43.110757715601316 102.51473546387484,-42.10805316663812 C104.42608027821676,-41.10534861767495 105.91931841442147,-39.66027441475743 106.99444987248877,-37.77283055788555 C108.0994460932802,-35.9148780112773 108.65194420367598,-33.747266706901016 108.65194420367598,-31.269996644756684 zM96.15334190522489,-38.39214807342164 C94.57050948084792,-38.39214807342164 93.2415275396258,-37.949778419467286 92.16639608155843,-37.065039111558605 C91.0912646234911,-36.180299803649895 90.43423984356107,-34.971156082841375 90.19532174176834,-33.43760794913296 H102.06676402301345 C101.82784592122067,-34.941664772577745 101.17082114129065,-36.136062838254475 100.09568968322328,-37.02080214616316 C99.02055822515595,-37.93503276433547 97.70650866529586,-38.39214807342164 96.15334190522489,-38.39214807342164 zM127.9535403522572,-43.6121099900829 C130.94001662466655,-43.6121099900829 133.3441300239561,-42.72737068217421 135.16588055012568,-40.95789206635684 C137.01749583901943,-39.18841345053946 137.94330348346637,-36.563686837077 137.94330348346637,-33.0837122259695 V-19.458726884175675 H130.95494900602858 V-32.022025056479066 C130.95494900602858,-33.90946891335094 130.53684232789135,-35.31030615087303 129.7006289716167,-36.22453676904535 C128.86441561534207,-37.16825869748129 127.65489272501634,-37.64011966169926 126.0720603006394,-37.64011966169926 C124.31003929991792,-37.64011966169926 122.90639545188556,-37.094530421822235 121.86112875654224,-36.003351942068164 C120.81586206119904,-34.941664772577745 120.2932287135274,-33.349134018342106 120.2932287135274,-31.225759679361246 V-19.458726884175675 H113.3048742360896 V-43.25821426691942 H119.97964870492443 V-40.471285447007055 C120.9054563493713,-41.473989995970236 122.0552497142489,-42.24076406282443 123.42902879955714,-42.77160764756964 C124.80280788486543,-43.33194254257849 126.31097840243217,-43.6121099900829 127.9535403522572,-43.6121099900829 zM169.08826903633218,-52.28255717367541 V-19.458726884175675 H162.41349456749737 V-22.201418738692617 C160.68133832949997,-20.137027020239014 158.1726982606761,-19.104831161012207 154.88757436102594,-19.104831161012207 C152.6178523939949,-19.104831161012207 150.55718376603244,-19.6061834354938 148.70556847713868,-20.60888798445698 C146.883817950969,-21.611592533420158 145.45030934021253,-23.041921081205874 144.4050426448693,-24.89987362781412 C143.359775949526,-26.75782617442237 142.8371426018544,-28.910691823666838 142.8371426018544,-31.35847057554756 C142.8371426018544,-33.80624932742827 143.359775949526,-35.95911497667274 144.4050426448693,-37.81706752328099 C145.45030934021253,-39.675020069889236 146.883817950969,-41.10534861767495 148.70556847713868,-42.10805316663812 C150.55718376603244,-43.110757715601316 152.6178523939949,-43.6121099900829 154.88757436102594,-43.6121099900829 C157.9636449216075,-43.6121099900829 160.367758320897,-42.653642406515175 162.09991455889434,-40.73670723937967 V-52.28255717367541 H169.08826903633218 zM156.09709725135173,-24.767162731627817 C157.85911825207313,-24.767162731627817 159.3224916255537,-25.35698893690028 160.4872173717934,-26.536641347445194 C161.65194311803293,-27.74578506825374 162.23430599115284,-29.353061477621193 162.23430599115284,-31.35847057554756 C162.23430599115284,-33.36387967347391 161.65194311803293,-34.95641042770956 160.4872173717934,-36.136062838254475 C159.3224916255537,-37.34520655906303 157.85911825207313,-37.949778419467286 156.09709725135173,-37.949778419467286 C154.30521148790615,-37.949778419467286 152.82690573306348,-37.34520655906303 151.66217998682384,-36.136062838254475 C150.4974542405842,-34.95641042770956 149.91509136746447,-33.36387967347391 149.91509136746447,-31.35847057554756 C149.91509136746447,-29.353061477621193 150.4974542405842,-27.74578506825374 151.66217998682384,-26.536641347445194 C152.82690573306348,-25.35698893690028 154.30521148790615,-24.767162731627817 156.09709725135173,-24.767162731627817 zM199.1650715757662,-31.269996644756684 C199.1650715757662,-31.181522713965812 199.12027443168,-30.56220519842974 199.03068014350782,-29.412044098148435 H180.79824250044896 C181.12675489041408,-27.937478584967288 181.90323872124043,-26.772571829554177 183.12769399292824,-25.917323831909112 C184.35214926461606,-25.06207583426405 185.87525216354487,-24.634451835441517 187.69700268971445,-24.634451835441517 C188.95132272412638,-24.634451835441517 190.05631894491785,-24.811399697023255 191.01199135208884,-25.16529542018673 C191.99752852198384,-25.548682453613825 192.90840378506869,-26.13850865888629 193.74461714134333,-26.93477403600411 L197.46278010049286,-22.953447150415013 C195.19305813346182,-20.3877031574798 191.87806947108754,-19.104831161012207 187.51781411336987,-19.104831161012207 C184.8001207054774,-19.104831161012207 182.39600730618798,-19.620929090625605 180.3054739155014,-20.653124949852415 C178.2149405248149,-21.714812119342845 176.60224333771396,-23.174631977392178 175.46738235419838,-25.032584524000427 C174.3325213706829,-26.890537070608676 173.7650908789251,-28.99916575445771 173.7650908789251,-31.35847057554756 C173.7650908789251,-33.68828408637376 174.31758898932083,-35.782167115091 175.4225852101123,-37.64011966169926 C176.5574461936278,-39.52756351857112 178.09548147391854,-40.98738337662046 180.03669105098464,-42.01957923584726 C182.00776539077475,-43.081266405337686 184.2028254509956,-43.6121099900829 186.6218712316471,-43.6121099900829 C188.98118748685044,-43.6121099900829 191.11651802162316,-43.110757715601316 193.0278628359651,-42.10805316663812 C194.93920765030708,-41.10534861767495 196.43244578651172,-39.66027441475743 197.50757724457895,-37.77283055788555 C198.61257346537042,-35.9148780112773 199.1650715757662,-33.747266706901016 199.1650715757662,-31.269996644756684 zM186.6666683757333,-38.39214807342164 C185.08383595135632,-38.39214807342164 183.75485401013424,-37.949778419467286 182.67972255206683,-37.065039111558605 C181.6045910939995,-36.180299803649895 180.9475663140695,-34.971156082841375 180.70864821227673,-33.43760794913296 H192.5798913951037 C192.34097329331092,-34.941664772577745 191.68394851338093,-36.136062838254475 190.60881705531352,-37.02080214616316 C189.53368559724618,-37.93503276433547 188.21963603738612,-38.39214807342164 186.6666683757333,-38.39214807342164 zM241.05338777257901,-52.28255717367541 V-19.458726884175675 H234.3786133037442 V-22.201418738692617 C232.64645706574686,-20.137027020239014 230.1378169969231,-19.104831161012207 226.85269309727278,-19.104831161012207 C224.58297113024167,-19.104831161012207 222.52230250227927,-19.6061834354938 220.67068721338558,-20.60888798445698 C218.84893668721588,-21.611592533420158 217.41542807645942,-23.041921081205874 216.37016138111613,-24.89987362781412 C215.3248946857729,-26.75782617442237 214.8022613381013,-28.910691823666838 214.8022613381013,-31.35847057554756 C214.8022613381013,-33.80624932742827 215.3248946857729,-35.95911497667274 216.37016138111613,-37.81706752328099 C217.41542807645942,-39.675020069889236 218.84893668721588,-41.10534861767495 220.67068721338558,-42.10805316663812 C222.52230250227927,-43.110757715601316 224.58297113024167,-43.6121099900829 226.85269309727278,-43.6121099900829 C229.9287636578544,-43.6121099900829 232.33287705714383,-42.653642406515175 234.06503329514123,-40.73670723937967 V-52.28255717367541 H241.05338777257901 zM228.06221598759856,-24.767162731627817 C229.82423698832002,-24.767162731627817 231.28761036180066,-25.35698893690028 232.4523361080403,-26.536641347445194 C233.61706185427988,-27.74578506825374 234.19942472739973,-29.353061477621193 234.19942472739973,-31.35847057554756 C234.19942472739973,-33.36387967347391 233.61706185427988,-34.95641042770956 232.4523361080403,-36.136062838254475 C231.28761036180066,-37.34520655906303 229.82423698832002,-37.949778419467286 228.06221598759856,-37.949778419467286 C226.27033022415299,-37.949778419467286 224.79202446931032,-37.34520655906303 223.6272987230708,-36.136062838254475 C222.46257297683115,-34.95641042770956 221.8802101037113,-33.36387967347391 221.8802101037113,-31.35847057554756 C221.8802101037113,-29.353061477621193 222.46257297683115,-27.74578506825374 223.6272987230708,-26.536641347445194 C224.79202446931032,-25.35698893690028 226.27033022415299,-24.767162731627817 228.06221598759856,-24.767162731627817 zM271.1291948199223,-31.269996644756684 C271.1291948199223,-31.181522713965812 271.08439767583616,-30.56220519842974 270.9948033876639,-29.412044098148435 H252.76236574460512 C253.09087813457018,-27.937478584967288 253.86736196539647,-26.772571829554177 255.0918172370844,-25.917323831909112 C256.31627250877216,-25.06207583426405 257.8393754077009,-24.634451835441517 259.66112593387066,-24.634451835441517 C260.9154459682825,-24.634451835441517 262.02044218907383,-24.811399697023255 262.97611459624494,-25.16529542018673 C263.96165176614,-25.548682453613825 264.87252702922484,-26.13850865888629 265.7087403854994,-26.93477403600411 L269.426903344649,-22.953447150415013 C267.157181377618,-20.3877031574798 263.8421927152436,-19.104831161012207 259.48193735752596,-19.104831161012207 C256.76424394963357,-19.104831161012207 254.36013055034408,-19.620929090625605 252.26959715965756,-20.653124949852415 C250.17906376897105,-21.714812119342845 248.56636658187006,-23.174631977392178 247.43150559835453,-25.032584524000427 C246.29664461483895,-26.890537070608676 245.7292141230812,-28.99916575445771 245.7292141230812,-31.35847057554756 C245.7292141230812,-33.68828408637376 246.28171223347692,-35.782167115091 247.38670845426833,-37.64011966169926 C248.52156943778397,-39.52756351857112 250.05960471807458,-40.98738337662046 252.00081429514074,-42.01957923584726 C253.97188863493074,-43.081266405337686 256.16694869515163,-43.6121099900829 258.5859944758033,-43.6121099900829 C260.94531073100654,-43.6121099900829 263.0806412657793,-43.110757715601316 264.9919860801212,-42.10805316663812 C266.9033308944632,-41.10534861767495 268.3965690306678,-39.66027441475743 269.4717004887351,-37.77283055788555 C270.5766967095265,-35.9148780112773 271.1291948199223,-33.747266706901016 271.1291948199223,-31.269996644756684 zM258.63079161988935,-38.39214807342164 C257.0479591955125,-38.39214807342164 255.71897725429022,-37.949778419467286 254.64384579622293,-37.065039111558605 C253.5687143381557,-36.180299803649895 252.91168955822553,-34.971156082841375 252.67277145643283,-33.43760794913296 H264.5440146392599 C264.3050965374671,-34.941664772577745 263.648071757537,-36.136062838254475 262.5729402994697,-37.02080214616316 C261.4978088414024,-37.93503276433547 260.1837592815422,-38.39214807342164 258.63079161988935,-38.39214807342164 zM288.4686760575306,-52.28255717367541 H295.4570305349685 V-19.458726884175675 H288.4686760575306 V-52.28255717367541 zM311.6636417732429,-43.6121099900829 C315.39673711375445,-43.6121099900829 318.2637543352674,-42.72737068217421 320.2646934377817,-40.95789206635684 C322.26563254029594,-39.21790476080307 323.26610209155297,-36.57843249220882 323.26610209155297,-33.03947526057407 V-19.458726884175675 H316.72571905497665 V-22.42260356566979 C315.4116694951166,-20.210755295898068 312.9627589517409,-19.104831161012207 309.3789874248498,-19.104831161012207 C307.52737213595606,-19.104831161012207 305.91467494885495,-19.41448991878024 304.5408958635468,-20.033807434316326 C303.1969815409625,-20.653124949852415 302.1666472269813,-21.508372947497477 301.44989292160307,-22.59955142725153 C300.73313861622495,-23.690729907005586 300.37476146353583,-24.929364938077747 300.37476146353583,-26.31545652046803 C300.37476146353583,-28.527304790239743 301.21097481981036,-30.267292095793508 302.8834015323596,-31.53541843712929 C304.5856930076328,-32.80354477846508 307.1988597459911,-33.43760794913296 310.7229017474339,-33.43760794913296 H316.27774761411536 C316.27774761411536,-34.941664772577745 315.8148437918918,-36.09182587285904 314.88903614744487,-36.88809124997687 C313.9632285029981,-37.7138479373583 312.5745170363278,-38.126726281049024 310.7229017474339,-38.126726281049024 C309.43871695029804,-38.126726281049024 308.1694645345241,-37.92028710920367 306.91514450011215,-37.507408765512935 C305.69068922842433,-37.12402173208585 304.6454225330811,-36.59317814734064 303.7793444140824,-35.9148780112773 L301.2707043452585,-40.73670723937967 C302.5847539051187,-41.65093785755197 304.1526539481335,-42.35872930387893 305.97440447430324,-42.860081578360514 C307.8260197631969,-43.361433852842104 309.7224321961768,-43.6121099900829 311.6636417732429,-43.6121099900829 zM311.1260760442091,-23.74971252753283 C312.32066655317294,-23.74971252753283 313.3808656298783,-24.01513431990544 314.3066732743251,-24.54597790465064 C315.2324809187721,-25.106312799659484 315.8895056987021,-25.917323831909112 316.27774761411536,-26.979011001399545 V-29.412044098148435 H311.48445319689836 C308.61743597538543,-29.412044098148435 307.18392736462897,-28.48306782484432 307.18392736462897,-26.625115278236066 C307.18392736462897,-25.74037597032738 307.52737213595606,-25.032584524000427 308.21426167861017,-24.501740939255207 C308.93101598398846,-24.000388664773627 309.9016207725215,-23.74971252753283 311.1260760442091,-23.74971252753283 zM373.14224682496996,-43.6121099900829 C376.1585878601034,-43.6121099900829 378.54776887803075,-42.72737068217421 380.3097898787523,-40.95789206635684 C382.10167564219785,-39.21790476080307 382.9976185239206,-36.59317814734064 382.9976185239206,-33.0837122259695 V-19.458726884175675 H376.00926404648277 V-32.022025056479066 C376.00926404648277,-33.90946891335094 375.60608974970773,-35.31030615087303 374.79974115615704,-36.22453676904535 C374.02325732533075,-37.16825869748129 372.90332872317725,-37.64011966169926 371.4399553496967,-37.64011966169926 C369.7973933998716,-37.64011966169926 368.4982762213734,-37.109276076954025 367.54260381420244,-36.04758890746361 C366.5869314070315,-35.015393048236795 366.1090952034461,-33.4670992593966 366.1090952034461,-31.402707540942988 V-19.458726884175675 H359.12074072600825 V-32.022025056479066 C359.12074072600825,-35.767421459959195 357.5976378270795,-37.64011966169926 354.551432029222,-37.64011966169926 C352.9387348421211,-37.64011966169926 351.65455004498506,-37.109276076954025 350.69887763781395,-36.04758890746361 C349.7432052306431,-35.015393048236795 349.2653690270576,-33.4670992593966 349.2653690270576,-31.402707540942988 V-19.458726884175675 H342.27701454961993 V-43.25821426691942 H348.95178901845463 V-40.51552241240248 C349.8477319001774,-41.51822696136567 350.9377957396069,-42.28500102821987 352.22198053674276,-42.81584461296509 C353.5360300966028,-43.34668819771031 354.96953870735933,-43.6121099900829 356.52250636901226,-43.6121099900829 C358.2247978442856,-43.6121099900829 359.7628331245762,-43.27295992205124 361.1366122098847,-42.59465978598791 C362.5103912951929,-41.9458509601882 363.61538751598437,-40.98738337662046 364.45160087225895,-39.71925703528466 C365.4371380421539,-40.95789206635684 366.6765256952039,-41.91635964992457 368.16976383140843,-42.59465978598791 C369.69286673033724,-43.27295992205124 371.35036106152455,-43.6121099900829 373.14224682496996,-43.6121099900829 zM398.9832305180369,-43.6121099900829 C402.7163258585484,-43.6121099900829 405.5833430800613,-42.72737068217421 407.5842821825756,-40.95789206635684 C409.58522128508986,-39.21790476080307 410.585690836347,-36.57843249220882 410.585690836347,-33.03947526057407 V-19.458726884175675 H404.0453077997705 V-22.42260356566979 C402.7312582399104,-20.210755295898068 400.28234769653494,-19.104831161012207 396.69857616964373,-19.104831161012207 C394.8469608807499,-19.104831161012207 393.2342636936489,-19.41448991878024 391.8604846083406,-20.033807434316326 C390.5165702857564,-20.653124949852415 389.4862359717752,-21.508372947497477 388.7694816663971,-22.59955142725153 C388.0527273610189,-23.690729907005586 387.6943502083297,-24.929364938077747 387.6943502083297,-26.31545652046803 C387.6943502083297,-28.527304790239743 388.5305635646042,-30.267292095793508 390.20299027715345,-31.53541843712929 C391.9052817524268,-32.80354477846508 394.518448490785,-33.43760794913296 398.0424904922279,-33.43760794913296 H403.59733635890916 C403.59733635890916,-34.941664772577745 403.1344325366858,-36.09182587285904 402.20862489223896,-36.88809124997687 C401.2828172477921,-37.7138479373583 399.8941057811217,-38.126726281049024 398.0424904922279,-38.126726281049024 C396.75830569509185,-38.126726281049024 395.489053279318,-37.92028710920367 394.23473324490607,-37.507408765512935 C393.0102779732182,-37.12402173208585 391.9650112778749,-36.59317814734064 391.0989331588763,-35.9148780112773 L388.59029309005246,-40.73670723937967 C389.9043426499127,-41.65093785755197 391.47224269292735,-42.35872930387893 393.29399321909716,-42.860081578360514 C395.14560850799086,-43.361433852842104 397.04202094097076,-43.6121099900829 398.9832305180369,-43.6121099900829 zM398.4456647890031,-23.74971252753283 C399.6402552979669,-23.74971252753283 400.7004543746721,-24.01513431990544 401.626262019119,-24.54597790465064 C402.552069663566,-25.106312799659484 403.209094443496,-25.917323831909112 403.59733635890916,-26.979011001399545 V-29.412044098148435 H398.8040419416923 C395.93702472017935,-29.412044098148435 394.50351610942295,-28.48306782484432 394.50351610942295,-26.625115278236066 C394.50351610942295,-25.74037597032738 394.8469608807499,-25.032584524000427 395.53385042340403,-24.501740939255207 C396.25060472878226,-24.000388664773627 397.2212095173154,-23.74971252753283 398.4456647890031,-23.74971252753283 zM431.55871820538664,-43.6121099900829 C434.545194477796,-43.6121099900829 436.94930787708546,-42.72737068217421 438.7710584032551,-40.95789206635684 C440.6226736921488,-39.18841345053946 441.5484813365957,-36.563686837077 441.5484813365957,-33.0837122259695 V-19.458726884175675 H434.56012685915806 V-32.022025056479066 C434.56012685915806,-33.90946891335094 434.14202018102077,-35.31030615087303 433.30580682474607,-36.22453676904535 C432.46959346847143,-37.16825869748129 431.2600705781457,-37.64011966169926 429.67723815376866,-37.64011966169926 C427.9152171530473,-37.64011966169926 426.51157330501496,-37.094530421822235 425.46630660967173,-36.003351942068164 C424.42103991432845,-34.941664772577745 423.89840656665683,-33.349134018342106 423.89840656665683,-31.225759679361246 V-19.458726884175675 H416.91005208921905 V-43.25821426691942 H423.58482655805386 V-40.471285447007055 C424.51063420250085,-41.473989995970236 425.6604275673783,-42.24076406282443 427.0342066526866,-42.77160764756964 C428.40798573799486,-43.33194254257849 429.9161562555616,-43.6121099900829 431.55871820538664,-43.6121099900829 zM459.61367630839953,-19.104831161012207 C457.0751714768517,-19.104831161012207 454.79051712845865,-19.620929090625605 452.75971326322036,-20.653124949852415 C450.7587741607061,-21.714812119342845 449.1908741176912,-23.174631977392178 448.05601313417566,-25.032584524000427 C446.92115215066013,-26.890537070608676 446.35372165890243,-28.99916575445771 446.35372165890243,-31.35847057554756 C446.35372165890243,-33.717775396637386 446.92115215066013,-35.826404080486434 448.05601313417566,-37.68435662709468 C449.1908741176912,-39.542309173702925 450.7587741607061,-40.98738337662046 452.75971326322036,-42.01957923584726 C454.79051712845865,-43.081266405337686 457.0751714768517,-43.6121099900829 459.61367630839953,-43.6121099900829 C462.1521811399475,-43.6121099900829 464.4219031069787,-43.081266405337686 466.4228422094928,-42.01957923584726 C468.423781312007,-40.98738337662046 469.99168135502197,-39.542309173702925 471.12654233853743,-37.68435662709468 C472.261403322053,-35.826404080486434 472.8288338138108,-33.717775396637386 472.8288338138108,-31.35847057554756 C472.8288338138108,-28.99916575445771 472.261403322053,-26.890537070608676 471.12654233853743,-25.032584524000427 C469.99168135502197,-23.174631977392178 468.423781312007,-21.714812119342845 466.4228422094928,-20.653124949852415 C464.4219031069787,-19.620929090625605 462.1521811399475,-19.104831161012207 459.61367630839953,-19.104831161012207 zM459.61367630839953,-24.767162731627817 C461.40556207184534,-24.767162731627817 462.86893544532575,-25.35698893690028 464.0037964288412,-26.536641347445194 C465.168522175081,-27.74578506825374 465.7508850482007,-29.353061477621193 465.7508850482007,-31.35847057554756 C465.7508850482007,-33.36387967347391 465.168522175081,-34.95641042770956 464.0037964288412,-36.136062838254475 C462.86893544532575,-37.34520655906303 461.40556207184534,-37.949778419467286 459.61367630839953,-37.949778419467286 C457.82179054495396,-37.949778419467286 456.34348479011146,-37.34520655906303 455.1787590438719,-36.136062838254475 C454.0140332976321,-34.95641042770956 453.4316704245122,-33.36387967347391 453.4316704245122,-31.35847057554756 C453.4316704245122,-29.353061477621193 454.0140332976321,-27.74578506825374 455.1787590438719,-26.536641347445194 C456.34348479011146,-25.35698893690028 457.82179054495396,-24.767162731627817 459.61367630839953,-24.767162731627817 zM514.735068868258,-52.28255717367541 V-19.458726884175675 H508.06029439942324 V-22.201418738692617 C506.3281381614259,-20.137027020239014 503.819498092602,-19.104831161012207 500.5343741929519,-19.104831161012207 C498.26465222592077,-19.104831161012207 496.20398359795826,-19.6061834354938 494.3523683090646,-20.60888798445698 C492.53061778289504,-21.611592533420158 491.09710917213846,-23.041921081205874 490.0518424767952,-24.89987362781412 C489.0065757814519,-26.75782617442237 488.48394243378027,-28.910691823666838 488.48394243378027,-31.35847057554756 C488.48394243378027,-33.80624932742827 489.0065757814519,-35.95911497667274 490.0518424767952,-37.81706752328099 C491.09710917213846,-39.675020069889236 492.53061778289504,-41.10534861767495 494.3523683090646,-42.10805316663812 C496.20398359795826,-43.110757715601316 498.26465222592077,-43.6121099900829 500.5343741929519,-43.6121099900829 C503.6104447535334,-43.6121099900829 506.0145581528227,-42.653642406515175 507.7467143908203,-40.73670723937967 V-52.28255717367541 H514.735068868258 zM501.7438970832775,-24.767162731627817 C503.5059180839991,-24.767162731627817 504.9692914574796,-25.35698893690028 506.13401720371917,-26.536641347445194 C507.2987429499589,-27.74578506825374 507.8811058230787,-29.353061477621193 507.8811058230787,-31.35847057554756 C507.8811058230787,-33.36387967347391 507.2987429499589,-34.95641042770956 506.13401720371917,-36.136062838254475 C504.9692914574796,-37.34520655906303 503.5059180839991,-37.949778419467286 501.7438970832775,-37.949778419467286 C499.9520113198321,-37.949778419467286 498.47370556498936,-37.34520655906303 497.3089798187499,-36.136062838254475 C496.1442540725103,-34.95641042770956 495.56189119939035,-33.36387967347391 495.56189119939035,-31.35847057554756 C495.56189119939035,-29.353061477621193 496.1442540725103,-27.74578506825374 497.3089798187499,-26.536641347445194 C498.47370556498936,-25.35698893690028 499.9520113198321,-24.767162731627817 501.7438970832775,-24.767162731627817 zM544.811871407692,-31.269996644756684 C544.811871407692,-31.181522713965812 544.7670742636059,-30.56220519842974 544.6774799754337,-29.412044098148435 H526.445042332375 C526.77355472234,-27.937478584967288 527.5500385531662,-26.772571829554177 528.7744938248542,-25.917323831909112 C529.9989490965419,-25.06207583426405 531.5220519954705,-24.634451835441517 533.3438025216403,-24.634451835441517 C534.5981225560524,-24.634451835441517 535.7031187768438,-24.811399697023255 536.6587911840146,-25.16529542018673 C537.6443283539095,-25.548682453613825 538.5552036169944,-26.13850865888629 539.3914169732693,-26.93477403600411 L543.1095799324187,-22.953447150415013 C540.8398579653876,-20.3877031574798 537.5248693030135,-19.104831161012207 533.1646139452961,-19.104831161012207 C530.4469205374033,-19.104831161012207 528.0428071381141,-19.620929090625605 525.9522737474274,-20.653124949852415 C523.8617403567408,-21.714812119342845 522.2490431696399,-23.174631977392178 521.1141821861243,-25.032584524000427 C519.9793212026087,-26.890537070608676 519.4118907108508,-28.99916575445771 519.4118907108508,-31.35847057554756 C519.4118907108508,-33.68828408637376 519.9643888212468,-35.782167115091 521.069385042038,-37.64011966169926 C522.2042460255535,-39.52756351857112 523.7422813058446,-40.98738337662046 525.6834908829106,-42.01957923584726 C527.6545652227009,-43.081266405337686 529.8496252829216,-43.6121099900829 532.2686710635728,-43.6121099900829 C534.6279873187764,-43.6121099900829 536.763317853549,-43.110757715601316 538.6746626678911,-42.10805316663812 C540.5860074822331,-41.10534861767495 542.0792456184375,-39.66027441475743 543.1543770765049,-37.77283055788555 C544.2593732972963,-35.9148780112773 544.811871407692,-33.747266706901016 544.811871407692,-31.269996644756684 zM532.3134682076593,-38.39214807342164 C530.7306357832821,-38.39214807342164 529.40165384206,-37.949778419467286 528.3265223839929,-37.065039111558605 C527.2513909259254,-36.180299803649895 526.5943661459953,-34.971156082841375 526.3554480442028,-33.43760794913296 H538.2266912270296 C537.9877731252368,-34.941664772577745 537.3307483453069,-36.136062838254475 536.2556168872397,-37.02080214616316 C535.1804854291719,-37.93503276433547 533.866435869312,-38.39214807342164 532.3134682076593,-38.39214807342164 zM0.917799152782907,1.7848469423874107 H7.9061536302206346 V34.60867526579977 H0.917799152782907 V1.7848469423874107 zM25.860052586272722,34.96257098896326 C23.321547754724822,34.96257098896326 21.03689340633164,34.446473059349835 19.00608954109336,33.41427720012305 C17.005150438579207,32.352590030632626 15.437250395564245,30.892770172583297 14.30238941204872,29.034817625975034 C13.16752842853322,27.176865079366788 12.600097936775429,25.06823639551775 12.600097936775429,22.708931574427893 C12.600097936775429,20.349626753338068 13.16752842853322,18.24099806948903 14.30238941204872,16.383045522880778 C15.437250395564245,14.52509297627252 17.005150438579207,13.080018773354993 19.00608954109336,12.047822914128199 C21.03689340633164,10.986135744637771 23.321547754724822,10.45529215989257 25.860052586272722,10.45529215989257 C28.398557417820623,10.45529215989257 30.668279384851708,10.986135744637771 32.6692184873659,12.047822914128199 C34.67015758988012,13.080018773354993 36.238057632895035,14.52509297627252 37.37291861641058,16.383045522880778 C38.50777959992611,18.24099806948903 39.07521009168387,20.349626753338068 39.07521009168387,22.708931574427893 C39.07521009168387,25.06823639551775 38.50777959992611,27.176865079366788 37.37291861641058,29.034817625975034 C36.238057632895035,30.892770172583297 34.67015758988012,32.352590030632626 32.6692184873659,33.41427720012305 C30.668279384851708,34.446473059349835 28.398557417820623,34.96257098896326 25.860052586272722,34.96257098896326 zM25.860052586272722,29.300239418347648 C27.65193834971826,29.300239418347648 29.11531172319887,28.710413213075174 30.250172706714398,27.53076080253026 C31.414898452954002,26.321617081721715 31.997261326073804,24.71434067235428 31.997261326073804,22.708931574427893 C31.997261326073804,20.703522476501558 31.414898452954002,19.11099172226591 30.250172706714398,17.93133931172097 C29.11531172319887,16.722195590912456 27.65193834971826,16.117623730508168 25.860052586272722,16.117623730508168 C24.068166822827113,16.117623730508168 22.589861067984565,16.722195590912456 21.4251353217449,17.93133931172097 C20.26040957550527,19.11099172226591 19.6780467023855,20.703522476501558 19.6780467023855,22.708931574427893 C19.6780467023855,24.71434067235428 20.26040957550527,26.321617081721715 21.4251353217449,27.53076080253026 C22.589861067984565,28.710413213075174 24.068166822827113,29.300239418347648 25.860052586272722,29.300239418347648 zM51.85464070895049,34.96257098896326 C49.853701606436246,34.96257098896326 47.897559648008155,34.72664050685428 45.986214833666196,34.2547795426363 C44.07487001932426,33.75342726815471 42.5517671203955,33.134109752618635 41.41690613687998,32.396826996028054 L43.74635762935924,27.44228687173938 C44.82148908742663,28.120587007802722 46.12060626592462,28.68092190281157 47.643709164853384,29.123291556765913 C49.1668120637821,29.536169900456628 50.660050199986756,29.74260907230198 52.123423573467335,29.74260907230198 C55.080035083152545,29.74260907230198 56.55834083799514,29.02007197084323 56.55834083799514,27.574997767925712 C56.55834083799514,26.89669763186237 56.155166541219884,26.41009101251259 55.34881794766937,26.11517790987637 C54.54246935411885,25.82026480724014 53.30308170106901,25.569588669999355 51.63065498851979,25.36314949815398 C49.65958064872968,25.06823639551775 48.031951080266595,24.729086327486076 46.74776628313059,24.345699294058985 C45.463581485994574,23.96231226063189 44.34365288384109,23.284012124568566 43.38798047667013,22.310798885868987 C42.46217283222325,21.337585647169444 41.999269009999814,19.951494064779148 41.999269009999814,18.152524138698166 C41.999269009999814,16.648467315253384 42.43230806949916,15.321358353390348 43.298386188497865,14.171197253109055 C44.194329070220626,12.991544842564142 45.47851386735665,12.077314224391824 47.15094057990583,11.428505398592112 C48.853232055179156,10.77969657279241 50.854171157693386,10.45529215989257 53.153757887448506,10.45529215989257 C54.85604936272181,10.45529215989257 56.543408456633074,10.646985676606109 58.21583516918231,11.030372710033204 C59.91812664445559,11.384268433196684 61.321770492487964,11.885620707678278 62.426766713279434,12.534429533477981 L60.09731522080013,17.444732692371215 C57.97691706738954,16.265080281826293 55.66239795627238,15.675254076553824 53.153757887448506,15.675254076553824 C51.660519751243896,15.675254076553824 50.54059114909043,15.881693248399191 49.79397208098807,16.294571592089913 C49.04735301288577,16.707449935780637 48.674043478834584,17.238293520525843 48.674043478834584,17.887102346325545 C48.674043478834584,18.624385102916126 49.07721777560986,19.140483032529527 49.883566369160356,19.435396135165764 C50.689914962710866,19.73030923780198 51.974099759846844,20.0104766853064 53.73612076056835,20.27589847767902 C55.70719510035848,20.600302890578867 57.319892287459524,20.954198613742353 58.5742123218714,21.337585647169444 C59.828532356283326,21.691481370332912 60.91859619571271,22.35503585126444 61.84440384015961,23.328249089963982 C62.77021148460648,24.301462328663547 63.233115306829916,25.6580626007902 63.233115306829916,27.39804990634398 C63.233115306829916,28.872615419525133 62.78514386596856,30.18497872625633 61.88920098424575,31.33513982653764 C60.99325810252299,32.48530092681892 59.67920854266283,33.38478588985941 57.94705230466544,34.033594715659135 C56.24476082939215,34.65291223119523 54.21395696415383,34.96257098896326 51.85464070895049,34.96257098896326 zM111.09687277868838,10.45529215989257 C114.11321381382179,10.45529215989257 116.5023948317492,11.340031467801245 118.26441583247065,13.109510083618618 C120.0563015959163,14.849497389172388 120.95224447763903,17.474224002634816 120.95224447763903,20.983689924005958 V34.60867526579977 H113.9638900002013 V22.04537709349639 C113.9638900002013,20.157933236624526 113.56071570342608,18.757095999102425 112.75436710987552,17.842865380930107 C111.97788327904908,16.899143452494183 110.85795467689562,16.4272824882762 109.39458130341507,16.4272824882762 C107.75201935358993,16.4272824882762 106.45290217509195,16.958126073021422 105.49722976792094,18.019813242511855 C104.54155736074993,19.052009101738662 104.06372115716445,20.600302890578867 104.06372115716445,22.664694609032477 V34.60867526579977 H97.0753666797267 V22.04537709349639 C97.0753666797267,18.299980690016266 95.55216423158888,16.4272824882762 92.50595843373141,16.4272824882762 C90.89326124663036,16.4272824882762 89.60907644949437,16.958126073021422 88.65340404232343,18.019813242511855 C87.69773163515242,19.052009101738662 87.21989543156694,20.600302890578867 87.21989543156694,22.664694609032477 V34.60867526579977 H80.23154095412914 V10.809187883056039 H86.906315422964 V13.551879737572976 C87.80225830468675,12.54917518860979 88.89232214411616,11.7824011217556 90.17650694125216,11.25155753701038 C91.49055650111227,10.720713952265164 92.9240651118687,10.45529215989257 94.47703277352154,10.45529215989257 C96.17932424879487,10.45529215989257 97.71745907829468,10.794442227924234 99.09123816360302,11.472742363987559 C100.46501724891124,12.121551189787263 101.57001346970267,13.080018773354993 102.40622682597731,14.348145114690785 C103.39176399587237,13.109510083618618 104.63115164892218,12.151042500050877 106.12438978512687,11.472742363987559 C107.64749268405562,10.794442227924234 109.30498701524279,10.45529215989257 111.09687277868838,10.45529215989257 zM151.08678555833973,22.79740550521878 C151.08678555833973,22.885879436009645 151.04198841425347,23.505196951545717 150.9523941260813,24.655358051827033 H132.7199564830225 C133.04846887298748,26.129923565008166 133.82495270381395,27.29483032042129 135.04940797550177,28.15007831806635 C136.27386324718958,29.00532631571141 137.79696614611834,29.432950314533958 139.61871667228797,29.432950314533958 C140.8730367066999,29.432950314533958 141.9780329274913,29.25600245295222 142.9337053346623,28.902106729788727 C143.91924250455736,28.518719696361646 144.8301177676422,27.928893491089166 145.66633112391685,27.13262811397135 L149.3844940830664,31.113954999560452 C147.11477211603528,33.679698992495666 143.79978345366112,34.96257098896326 139.4395280959434,34.96257098896326 C136.721834688051,34.96257098896326 134.31772128876145,34.446473059349835 132.22718789807493,33.41427720012305 C130.1366545073884,32.352590030632626 128.52395732028742,30.892770172583297 127.38909633677191,29.034817625975034 C126.25423535325633,27.176865079366788 125.68680486149859,25.06823639551775 125.68680486149859,22.708931574427893 C125.68680486149859,20.379118063601698 126.23930297189432,18.285235034884465 127.34429919268575,16.4272824882762 C128.47916017620128,14.539838631404333 130.01719545649206,13.080018773354993 131.95840503355817,12.047822914128199 C133.92947937334822,10.986135744637771 136.1245394335691,10.45529215989257 138.54358521422057,10.45529215989257 C140.90290146942397,10.45529215989257 143.03823200419657,10.956644434374144 144.94957681853856,11.959348983337327 C146.8609216328805,12.962053532300517 148.3541597690852,14.407127735218038 149.42929122715253,16.294571592089913 C150.53428744794394,18.152524138698166 151.08678555833973,20.320135443074445 151.08678555833973,22.79740550521878 zM138.58838235830677,15.675254076553824 C137.00554993392984,15.675254076553824 135.6765679927077,16.117623730508168 134.60143653464036,17.00236303841687 C133.526305076573,17.887102346325545 132.86928029664296,19.096246067134096 132.6303621948502,20.629794200842476 H144.50160537767715 C144.2626872758845,19.12573737739772 143.60566249595445,17.93133931172097 142.53053103788704,17.046600003812298 C141.45539957981964,16.13236938563999 140.1413500199596,15.675254076553824 138.58838235830677,15.675254076553824 zM153.94683433521703,43.544542275677536 C151.49792379184134,43.544542275677536 149.63137612158556,43.10217262172319 148.34719132444957,42.21743331381451 L150.22867137606744,37.21865622413041 C151.03501996961785,37.77899111913924 152.02055713951302,38.05915856664367 153.18528288575266,38.05915856664367 C154.08122576747542,38.05915856664367 154.78304769149162,37.76424546400744 155.29074865780115,37.17441925873498 C155.7984496241108,36.614084363726164 156.05230010726552,35.758836366081084 156.05230010726552,34.60867526579977 V10.809187883056039 H163.04065458470325 V34.56443830040434 C163.04065458470325,37.33662146518491 162.23430599115284,39.51897842469301 160.62160880405173,41.11150917892864 C159.0387763796748,42.73353124342791 156.81385155672996,43.544542275677536 153.94683433521703,43.544542275677536 zM159.54647734598444,7.491415478398444 C158.2622925488484,7.491415478398444 157.21702585350522,7.122774100103165 156.41067725995458,6.385491343512587 C155.60432866640417,5.648208586922012 155.20115436962885,4.733977968749709 155.20115436962885,3.6427994889956503 C155.20115436962885,2.5516210092415967 155.60432866640417,1.6373903910692942 156.41067725995458,0.9001076344787174 C157.21702585350522,0.1628248778881409 158.2622925488484,-0.20581650040714694 159.54647734598444,-0.20581650040714694 C160.83066214312043,-0.20581650040714694 161.87592883846366,0.14807922275632887 162.6822774320142,0.8558706690832811 C163.4886260255647,1.5636621154102235 163.89180032233992,2.4484014233189173 163.89180032233992,3.5100885928093515 C163.89180032233992,4.660249693090639 163.4886260255647,5.618717276658385 162.6822774320142,6.385491343512587 C161.87592883846366,7.122774100103165 160.83066214312043,7.491415478398444 159.54647734598444,7.491415478398444 zM180.9435843457062,34.96257098896326 C178.40507951415833,34.96257098896326 176.1204251657652,34.446473059349835 174.08962130052691,33.41427720012305 C172.0886821980127,32.352590030632626 170.5207821549978,30.892770172583297 169.3859211714822,29.034817625975034 C168.2510601879667,27.176865079366788 167.68362969620898,25.06823639551775 167.68362969620898,22.708931574427893 C167.68362969620898,20.349626753338068 168.2510601879667,18.24099806948903 169.3859211714822,16.383045522880778 C170.5207821549978,14.52509297627252 172.0886821980127,13.080018773354993 174.08962130052691,12.047822914128199 C176.1204251657652,10.986135744637771 178.40507951415833,10.45529215989257 180.9435843457062,10.45529215989257 C183.48208917725412,10.45529215989257 185.75181114428523,10.986135744637771 187.7527502467994,12.047822914128199 C189.75368934931367,13.080018773354993 191.32158939232852,14.52509297627252 192.45645037584404,16.383045522880778 C193.59131135935968,18.24099806948903 194.15874185111738,20.349626753338068 194.15874185111738,22.708931574427893 C194.15874185111738,25.06823639551775 193.59131135935968,27.176865079366788 192.45645037584404,29.034817625975034 C191.32158939232852,30.892770172583297 189.75368934931367,32.352590030632626 187.7527502467994,33.41427720012305 C185.75181114428523,34.446473059349835 183.48208917725412,34.96257098896326 180.9435843457062,34.96257098896326 zM180.9435843457062,29.300239418347648 C182.73547010915183,29.300239418347648 184.1988434826324,28.710413213075174 185.33370446614794,27.53076080253026 C186.49843021238758,26.321617081721715 187.0807930855073,24.71434067235428 187.0807930855073,22.708931574427893 C187.0807930855073,20.703522476501558 186.49843021238758,19.11099172226591 185.33370446614794,17.93133931172097 C184.1988434826324,16.722195590912456 182.73547010915183,16.117623730508168 180.9435843457062,16.117623730508168 C179.15169858226068,16.117623730508168 177.67339282741807,16.722195590912456 176.5086670811785,17.93133931172097 C175.34394133493885,19.11099172226591 174.76157846181906,20.703522476501558 174.76157846181906,22.708931574427893 C174.76157846181906,24.71434067235428 175.34394133493885,26.321617081721715 176.5086670811785,27.53076080253026 C177.67339282741807,28.710413213075174 179.15169858226068,29.300239418347648 180.9435843457062,29.300239418347648 zM205.50536070209114,13.950012426131881 C206.34157405836572,12.799851325850582 207.46150266051922,11.929857673073716 208.86514650855162,11.340031467801245 C210.29865511930808,10.750205262528791 211.94121706913313,10.45529215989257 213.79283235802689,10.45529215989257 V16.825415176835115 C213.01634852720053,16.76643255630787 212.49371517952886,16.736941246044243 212.22493231501198,16.736941246044243 C210.22399321249787,16.736941246044243 208.65609316948292,17.297276141053086 207.52123218596745,18.417945931070754 C206.38637120245187,19.509124410824803 205.8189407106941,21.1606377855877 205.8189407106941,23.37248605535941 V34.60867526579977 H198.83058623325638 V10.809187883056039 H205.50536070209114 V13.950012426131881 zM241.33710301845792,22.79740550521878 C241.33710301845792,22.885879436009645 241.29230587437178,23.505196951545717 241.20271158619948,24.655358051827033 H222.97027394314074 C223.29878633310574,26.129923565008166 224.07527016393215,27.29483032042129 225.29972543562002,28.15007831806635 C226.52418070730778,29.00532631571141 228.04728360623648,29.432950314533958 229.86903413240617,29.432950314533958 C231.12335416681805,29.432950314533958 232.2283503876095,29.25600245295222 233.1840227947805,28.902106729788727 C234.16955996467556,28.518719696361646 235.08043522776046,27.928893491089166 235.91664858403504,27.13262811397135 L239.63481154318464,31.113954999560452 C237.3650895761536,33.679698992495666 234.05010091377926,34.96257098896326 229.68984555606164,34.96257098896326 C226.9721521481692,34.96257098896326 224.56803874887976,34.446473059349835 222.47750535819318,33.41427720012305 C220.38697196750667,32.352590030632626 218.77427478040568,30.892770172583297 217.6394137968901,29.034817625975034 C216.50455281337457,27.176865079366788 215.9371223216168,25.06823639551775 215.9371223216168,22.708931574427893 C215.9371223216168,20.379118063601698 216.4896204320126,18.285235034884465 217.594616652804,16.4272824882762 C218.72947763631953,14.539838631404333 220.26751291661031,13.080018773354993 222.20872249367636,12.047822914128199 C224.1797968334664,10.986135744637771 226.37485689368725,10.45529215989257 228.79390267433882,10.45529215989257 C231.15321892954222,10.45529215989257 233.28854946431488,10.956644434374144 235.1998942786568,11.959348983337327 C237.11123909299874,12.962053532300517 238.60447722920338,14.407127735218038 239.67960868727073,16.294571592089913 C240.7846049080622,18.152524138698166 241.33710301845792,20.320135443074445 241.33710301845792,22.79740550521878 zM228.83869981842497,15.675254076553824 C227.25586739404804,15.675254076553824 225.9268854528259,16.117623730508168 224.85175399475855,17.00236303841687 C223.77662253669126,17.887102346325545 223.11959775676115,19.096246067134096 222.8806796549684,20.629794200842476 H234.7519228377954 C234.51300473600264,19.12573737739772 233.85597995607264,17.93133931172097 232.7808484980053,17.046600003812298 C231.7057170399379,16.13236938563999 230.39166748007779,15.675254076553824 228.83869981842497,15.675254076553824 zM254.09831613046282,34.96257098896326 C252.0973770279487,34.96257098896326 250.14123506952058,34.72664050685428 248.2298902551786,34.2547795426363 C246.3185454408366,33.75342726815471 244.7954425419079,33.134109752618635 243.66058155839232,32.396826996028054 L245.9900330508716,27.44228687173938 C247.0651645089389,28.120587007802722 248.36428168743703,28.68092190281157 249.88738458636573,29.123291556765913 C251.41048748529442,29.536169900456628 252.90372562149923,29.74260907230198 254.3670989949798,29.74260907230198 C257.32371050466486,29.74260907230198 258.80201625950747,29.02007197084323 258.80201625950747,27.574997767925712 C258.80201625950747,26.89669763186237 258.3988419627323,26.41009101251259 257.5924933691817,26.11517790987637 C256.7861447756313,25.82026480724014 255.54675712258125,25.569588669999355 253.87433041003214,25.36314949815398 C251.90325607024198,25.06823639551775 250.27562650177896,24.729086327486076 248.99144170464285,24.345699294058985 C247.70725690750686,23.96231226063189 246.58732830535342,23.284012124568566 245.6316558981825,22.310798885868987 C244.70584825373555,21.337585647169444 244.24294443151211,19.951494064779148 244.24294443151211,18.152524138698166 C244.24294443151211,16.648467315253384 244.6759834910115,15.321358353390348 245.5420616100102,14.171197253109055 C246.43800449173295,12.991544842564142 247.722189288869,12.077314224391824 249.39461600141817,11.428505398592112 C251.0969074766915,10.77969657279241 253.09784657920568,10.45529215989257 255.39743330896084,10.45529215989257 C257.0997247842342,10.45529215989257 258.78708387814544,10.646985676606109 260.4595105906946,11.030372710033204 C262.161802065968,11.384268433196684 263.5654459140004,11.885620707678278 264.67044213479176,12.534429533477981 L262.34099064231253,17.444732692371215 C260.22059248890196,16.265080281826293 257.90607337778476,15.675254076553824 255.39743330896084,15.675254076553824 C253.9041951727562,15.675254076553824 252.78426657060277,15.881693248399191 252.03764750250042,16.294571592089913 C251.29102843439807,16.707449935780637 250.91771890034698,17.238293520525843 250.91771890034698,17.887102346325545 C250.91771890034698,18.624385102916126 251.3208931971222,19.140483032529527 252.12724179067277,19.435396135165764 C252.93359038422318,19.73030923780198 254.21777518135923,20.0104766853064 255.9797961820808,20.27589847767902 C257.95087052187085,20.600302890578867 259.5635677089719,20.954198613742353 260.8178877433838,21.337585647169444 C262.0722077777957,21.691481370332912 263.1622716172252,22.35503585126444 264.088079261672,23.328249089963982 C265.01388690611884,24.301462328663547 265.47679072834234,25.6580626007902 265.47679072834234,27.39804990634398 C265.47679072834234,28.872615419525133 265.0288192874809,30.18497872625633 264.1328764057581,31.33513982653764 C263.23693352403535,32.48530092681892 261.9228839641751,33.38478588985941 260.19072772617784,34.033594715659135 C258.4884362509046,34.65291223119523 256.4576323856662,34.96257098896326 254.09831613046282,34.96257098896326 z" fill="#ffffff" id="svg_1" class="selected" fill-opacity="1"/></g></svg>