<svg width="24" height="24" viewBox="0 0 24 24" fill="none" xmlns="http://www.w3.org/2000/svg">
<path fill-rule="evenodd" clip-rule="evenodd" d="M15.9532 15.0067H17.0065L23.6598 21.6734L21.6732 23.66L15.0065 17.0067V15.9534L14.6465 15.58C13.1265 16.8867 11.1532 17.6734 9.00651 17.6734C4.21984 17.6734 0.339844 13.7934 0.339844 9.00669C0.339844 4.22003 4.21984 0.340027 9.00651 0.340027C13.7932 0.340027 17.6732 4.22003 17.6732 9.00669C17.6732 11.1534 16.8865 13.1267 15.5798 14.6467L15.9532 15.0067ZM3.00651 9.00669C3.00651 12.3267 5.68651 15.0067 9.00651 15.0067C12.3265 15.0067 15.0065 12.3267 15.0065 9.00669C15.0065 5.68669 12.3265 3.00669 9.00651 3.00669C5.68651 3.00669 3.00651 5.68669 3.00651 9.00669Z" fill="black" fill-opacity="0.54"/>
</svg>
