<svg width="22" height="20" viewBox="0 0 22 20" fill="none" xmlns="http://www.w3.org/2000/svg">
<path fill-rule="evenodd" clip-rule="evenodd" d="M15.5463 11C16.2963 11 16.9563 10.59 17.2963 9.97L20.8763 3.48C21.2463 2.82 20.7663 2 20.0063 2H5.20634L4.26634 0H0.996338V2H2.99634L6.59634 9.59L5.24634 12.03C4.51634 13.37 5.47634 15 6.99634 15H18.9963V13H6.99634L8.09634 11H15.5463ZM5.00634 18C5.00634 16.9 5.89634 16 6.99634 16C8.09634 16 8.99634 16.9 8.99634 18C8.99634 19.1 8.09634 20 6.99634 20C5.89634 20 5.00634 19.1 5.00634 18ZM15.0063 18C15.0063 16.9 15.8963 16 16.9963 16C18.0963 16 18.9963 16.9 18.9963 18C18.9963 19.1 18.0963 20 16.9963 20C15.8963 20 15.0063 19.1 15.0063 18ZM18.3063 4H6.15634L8.52634 9H15.5463L18.3063 4Z" fill="white"/>
</svg>
