<svg xmlns="http://www.w3.org/2000/svg" xmlns:xlink="http://www.w3.org/1999/xlink" height="30.75000004967056" style="enable-background:new 0 0 32 32;" version="1.1" width="50.33333260483215" xml:space="preserve"><rect id="backgroundrect" width="100%" height="100%" x="0" y="0" fill="none" stroke="none" class="" style=""/><g class="currentLayer" style=""><title>Layer 1</title><path d="M5.3987492533284165,7.375000048180966 h39.534989841507524 c1.8186095327093463,0 3.2945824867922937,-1.1713333190277362 3.2945824867922937,-2.614583301401196 s-1.4759729540829487,-2.614583301401196 -3.2945824867922937,-2.614583301401196 H5.3987492533284165 C3.58013972061907,2.145833445378575 2.1041667665361232,3.3171667644063096 2.1041667665361232,4.760416746779771 S3.58013972061907,7.375000048180966 5.3987492533284165,7.375000048180966 zM44.93373909483594,12.604166650983357 H5.3987492533284165 c-1.8186095327093463,0 -3.2945824867922937,1.1713333190277362 -3.2945824867922937,2.614583301401196 s1.4759729540829487,2.614583301401196 3.2945824867922937,2.614583301401196 h39.534989841507524 c1.8186095327093463,0 3.2945824867922937,-1.1713333190277362 3.2945824867922937,-2.614583301401196 S46.75234862754528,12.604166650983357 44.93373909483594,12.604166650983357 zM44.93373909483594,23.06249985658815 H5.3987492533284165 c-1.8186095327093463,0 -3.2945824867922937,1.1713333190277362 -3.2945824867922937,2.614583301401196 s1.4759729540829487,2.614583301401196 3.2945824867922937,2.614583301401196 h39.534989841507524 c1.8186095327093463,0 3.2945824867922937,-1.1713333190277362 3.2945824867922937,-2.614583301401196 S46.75234862754528,23.06249985658815 44.93373909483594,23.06249985658815 z" id="svg_1" class="selected" fill-opacity="1" fill="#ffffff"/></g></svg>