<svg xmlns="http://www.w3.org/2000/svg" xmlns:xlink="http://www.w3.org/1999/xlink" version="1.1" style="enable-background:new 0 0 212.982 212.982;" xml:space="preserve" width="30.91891893285134" height="30.37837839927701"><rect id="backgroundrect" width="100%" height="100%" x="0" y="0" fill="none" stroke="none" class="" style=""/>
















<g class="currentLayer" style=""><title>Layer 1</title><g id="Close" class="selected" fill="#1d42b1" fill-opacity="1">
	<path style="fill-rule:evenodd;clip-rule:evenodd;" d="M18.385411786306012,15.178749332108147 l9.143596222688135,-9.223640913910632 c0.8416790138615436,-0.8490472238231583 0.8416790138615436,-2.225621213463766 0,-3.074546971303544 c-0.8416790138615436,-0.8490472238231583 -2.2061863937011696,-0.8490472238231583 -3.047865407562712,0 l-9.143716634564226,9.223762379894012 L6.193709332302987,2.8804399809105963 c-0.8416790138615436,-0.8490472238231583 -2.2061863937011696,-0.8490472238231583 -3.047865407562712,0 c-0.8415586019854543,0.8490472238231583 -0.8415586019854543,2.225621213463766 0,3.074546971303544 l9.143716634564226,9.223640913910632 L3.1458439247402756,24.40239024601878 c-0.8415586019854543,0.8490472238231583 -0.8415586019854543,2.225621213463766 0,3.074546971303544 c0.8416790138615436,0.8490472238231583 2.2061863937011696,0.8490472238231583 3.047865407562712,0 l9.143716634564226,-9.223762379894012 l9.143716634564226,9.223762379894012 c0.8415586019854543,0.8490472238231583 2.2061863937011696,0.8490472238231583 3.047865407562712,0 c0.8416790138615436,-0.8490472238231583 0.8416790138615436,-2.2254997474803857 0,-3.074546971303544 L18.385411786306012,15.178749332108147 z" id="svg_1" fill="#1d42b1" fill-opacity="1"/>
</g><g id="svg_2">
</g><g id="svg_3">
</g><g id="svg_4">
</g><g id="svg_5">
</g><g id="svg_6">
</g><g id="svg_7">
</g><g id="svg_8">
</g><g id="svg_9">
</g><g id="svg_10">
</g><g id="svg_11">
</g><g id="svg_12">
</g><g id="svg_13">
</g><g id="svg_14">
</g><g id="svg_15">
</g><g id="svg_16">
</g></g></svg>