<svg width="26" height="20" viewBox="0 0 26 20" fill="none" xmlns="http://www.w3.org/2000/svg">
<path fill-rule="evenodd" clip-rule="evenodd" d="M25.997 2.37515C25.0256 2.79344 23.9916 3.06718 22.9317 3.18664C24.0423 2.56056 24.8713 1.571 25.2616 0.405521C24.214 0.979901 23.0755 1.39107 21.8897 1.62325C20.3993 0.0970515 18.0721 -0.409732 16.0258 0.346297C13.9795 1.10233 12.6321 2.96671 12.6309 5.04403C12.6384 5.43292 12.6795 5.82059 12.7538 6.20316C8.46323 6.0175 4.4647 4.0949 1.77856 0.925987C1.28662 1.69472 1.03192 2.57823 1.04323 3.47667C1.03822 5.17748 1.93624 6.76715 3.43408 7.70893C2.57146 7.70358 1.72552 7.48366 0.981254 7.07126V7.12887C0.982882 9.54242 2.77446 11.6241 5.27344 12.116C4.807 12.186 4.33593 12.2248 3.86372 12.2322C3.5333 12.2258 3.20449 12.1868 2.88259 12.116C3.57876 14.195 5.60401 15.6195 7.91011 15.652C6.01677 17.0412 3.68874 17.796 1.29219 17.7974C0.860575 17.807 0.428783 17.7875 0.00012207 17.7388C2.44864 19.2303 5.30325 20.0157 8.21579 19.9995C12.2594 20.0321 16.1475 18.528 19.0072 15.8247C21.867 13.1214 23.4588 9.4455 23.4254 5.6221V4.98443C24.4357 4.26086 25.3067 3.37821 26.0001 2.37515H25.997Z" fill="white"/>
</svg>
